<svg width="138" height="138" viewBox="0 0 138 138" fill="none" xmlns="http://www.w3.org/2000/svg">
<path d="M138 127.084L97.259 86.343C104.022 77.3183 108.08 66.1578 108.08 54.0399C108.08 24.2408 83.8391 0 54.0399 0C24.2408 0 0 24.2408 0 54.0399C0 83.8391 24.2408 108.08 54.0399 108.08C66.1578 108.08 77.3183 104.022 86.343 97.259L127.084 138L138 127.084ZM5.14666 54.0399C5.14666 27.0792 27.0792 5.14666 54.0399 5.14666C81.0007 5.14666 102.933 27.0792 102.933 54.0399C102.933 81.0007 81.0007 102.933 54.0399 102.933C27.0792 102.933 5.14666 81.0007 5.14666 54.0399ZM91.5257 92.8792C91.9837 92.4366 92.434 91.9863 92.8766 91.5282C93.2523 91.1397 93.6589 90.782 94.0218 90.3831L130.723 127.084L127.081 130.725L90.3831 94.0218C90.782 93.6589 91.1371 93.2523 91.5257 92.8792Z" fill="#E18C44"/>
</svg>
