<svg width="127" height="29" viewBox="0 0 127 29" fill="none" xmlns="http://www.w3.org/2000/svg">
<path d="M126.191 0.154297H0.402344V28.3001H126.191V0.154297Z" fill="#E18C44"/>
<path fill-rule="evenodd" clip-rule="evenodd" d="M5.35774 15.6534H11.4566C11.4566 15.6534 9.29656 11.3137 19.7154 1.84912C17.0048 2.55173 3.19774 9.66052 5.35774 15.6534ZM20.0542 12.8016C22.2142 18.7532 8.40715 25.9033 5.69656 26.6059C16.1154 17.1413 13.9554 12.8016 13.9554 12.8016H20.0542Z" fill="white"/>
<path d="M122.845 0.154297H23.9507V28.3001H122.845V0.154297Z" fill="#4D64AA"/>
<path fill-rule="evenodd" clip-rule="evenodd" d="M114.205 9.04057H109.673L107.64 20.1997H112.172L114.205 9.04057ZM107.682 4.86622L104.93 20.1997H100.398L103.193 4.86622H107.682ZM87.819 9.04057L89.7249 19.2078C89.8096 19.5384 89.8096 19.8278 89.7672 20.0344C89.6825 20.5717 89.1319 20.861 88.1154 20.861L87.1837 20.8197L86.6331 23.9194C87.0143 23.9194 87.3531 23.9608 87.6919 23.9608C88.0307 24.0021 88.3696 24.0021 88.6237 24.0021C90.5296 24.0021 91.8425 23.7128 92.5625 23.1342C93.2825 22.5555 94.1719 21.3156 95.146 19.4558L100.694 9.04057H96.3319L93.1131 15.9427L92.3507 9.04057H87.819V9.04057ZM84.9813 19.9931C84.7272 19.7864 84.6001 19.5798 84.5578 19.3731C84.5154 19.2078 84.5578 18.9185 84.6001 18.5465L85.5319 13.3389C85.8284 11.727 85.7013 10.5698 85.1507 9.82584C84.6001 9.0819 83.0754 8.70993 80.619 8.70993C78.4166 8.70993 76.7649 9.04057 75.6637 9.66052C74.5625 10.2805 73.9272 11.2311 73.7154 12.471H78.0778C78.2049 12.0163 78.4166 11.727 78.7554 11.603C79.0943 11.4791 79.4754 11.3964 79.899 11.3964C80.2801 11.3964 80.619 11.4791 80.9154 11.603C81.2119 11.727 81.2966 11.975 81.2543 12.347C81.1696 12.8843 80.2378 13.2563 78.459 13.4629C76.6801 13.7109 75.2825 14.0002 74.2237 14.4135C73.1649 14.8268 72.5296 15.7361 72.2754 17.2239C72.0637 18.3399 72.3178 19.1665 72.9954 19.7451C73.6731 20.3237 74.6049 20.613 75.7484 20.613C76.6378 20.613 77.4425 20.489 78.1625 20.2824C78.8825 20.0757 79.6025 19.6624 80.3225 19.0838V20.2824H85.0237L84.9813 19.9931ZM78.1625 18.0092C77.6966 18.0092 77.3578 17.9266 77.146 17.7612C76.9343 17.5959 76.8496 17.3479 76.8919 17.1C76.9766 16.5213 77.3578 16.1494 77.9931 15.984C78.6284 15.8187 79.5178 15.5707 80.6613 15.2814C80.4919 16.1494 80.2378 16.8106 79.8566 17.3066C79.4754 17.7612 78.9248 18.0092 78.1625 18.0092ZM67.066 20.1997H62.5343L64.5672 9.04057H68.7178L68.2943 11.3137C69.2684 9.57786 70.6237 8.75125 72.3178 8.75125L72.9107 8.83392L72.106 13.2563C71.9366 13.2563 71.7672 13.2149 71.5554 13.1736C71.3437 13.1323 71.2166 13.0909 71.1743 13.0909C70.2001 13.0909 69.4801 13.3389 68.9296 13.8349C68.379 14.3308 67.9978 15.1574 67.786 16.356L67.066 20.1997ZM60.7131 19.9931C60.459 19.7864 60.3319 19.5798 60.2896 19.3731C60.2472 19.2078 60.2896 18.9185 60.3743 18.5465L61.306 13.3389C61.6025 11.727 61.4754 10.5698 60.9249 9.82584C60.3743 9.0819 58.8496 8.70993 56.3931 8.70993C54.1907 8.70993 52.539 9.04057 51.4378 9.66052C50.3366 10.2805 49.7013 11.2311 49.4896 12.471H53.8519C53.979 12.0163 54.1907 11.727 54.5296 11.603C54.8684 11.4791 55.2496 11.3964 55.6731 11.3964C56.0543 11.3964 56.3931 11.4791 56.6472 11.603C56.9437 11.727 57.0284 11.975 56.986 12.347C56.9013 12.8843 55.9696 13.2563 54.1907 13.4629C52.4119 13.7109 51.0143 14.0002 49.9554 14.4135C48.8966 14.8268 48.2613 15.7361 48.0072 17.2239C47.7954 18.3399 48.0496 19.1665 48.7272 19.7451C49.4049 20.3237 50.3366 20.613 51.4801 20.613C52.3696 20.613 53.1743 20.489 53.8943 20.2824C54.6143 20.0757 55.3343 19.6624 56.0543 19.0838V20.2824H60.6707L60.7131 19.9931ZM53.8943 18.0092C53.4284 18.0092 53.0896 17.9266 52.8778 17.7612C52.666 17.5959 52.5813 17.3479 52.6237 17.1C52.7507 16.5213 53.0896 16.1494 53.7249 15.984C54.3602 15.8187 55.2496 15.5707 56.3931 15.2814C56.2237 16.1494 55.9696 16.8106 55.5884 17.3066C55.2072 17.7612 54.6566 18.0092 53.8943 18.0092ZM47.626 9.28855H42.7554C42.7554 8.79259 42.586 8.46195 42.2472 8.2553C41.9084 8.04865 41.4425 7.96598 40.9343 7.96598C39.8331 7.96598 39.2402 8.2553 39.1554 8.83392C39.0707 9.41254 39.9178 9.94983 41.6966 10.4045C43.5178 10.8591 44.9154 11.3964 45.9319 12.0163C46.9484 12.595 47.3296 13.7109 47.0331 15.2814C46.7366 17.0173 45.8049 18.2985 44.3225 19.2078C42.8401 20.1171 40.9766 20.5304 38.7319 20.5304C36.699 20.5304 35.0896 20.0344 33.9884 19.0425C32.8872 18.0506 32.4213 16.8106 32.7178 15.4054H37.6731C37.6731 15.9427 37.8849 16.356 38.266 16.604C38.6896 16.852 39.1554 16.976 39.706 16.976C40.3837 16.976 40.9343 16.8933 41.3154 16.6867C41.739 16.48 41.9507 16.1907 42.0354 15.8187C42.1625 15.2401 41.2731 14.7441 39.4943 14.2895C37.7154 13.8349 36.3178 13.2976 35.259 12.6776C34.2425 12.0577 33.8613 10.9004 34.1578 9.20589C34.4543 7.63534 35.3013 6.43677 36.699 5.56884C38.0966 4.7009 39.8331 4.2876 41.866 4.2876C43.9413 4.2876 45.4237 4.74222 46.3978 5.65149C47.2449 6.68474 47.6684 7.842 47.626 9.28855Z" fill="white"/>
</svg>
