<?xml version="1.0" encoding="utf-8"?><svg xmlns="http://www.w3.org/2000/svg" xmlns:xlink="http://www.w3.org/1999/xlink"><symbol viewBox="0 0 20 20" id="cart" xmlns="http://www.w3.org/2000/svg"><path d="M.74 2.404h2.12l3.022 10.925a.74.74 0 0 0 .715.543h9.286a.741.741 0 0 0 .678-.444l3.379-7.769a.749.749 0 0 0-.062-.703.735.735 0 0 0-.616-.333H9.002a.742.742 0 0 0-.74.74c0 .407.333.74.74.74h9.125l-2.737 6.29H7.152L4.132 1.465a.74.74 0 0 0-.716-.542H.74a.742.742 0 0 0-.74.74c0 .407.333.74.74.74zm5.154 16.672c.925 0 1.677-.752 1.677-1.677s-.752-1.677-1.677-1.677-1.677.752-1.677 1.677.752 1.677 1.677 1.677zm10.482 0h.123a1.676 1.676 0 0 0 1.147-.58 1.67 1.67 0 0 0 .407-1.22 1.681 1.681 0 0 0-1.788-1.554 1.68 1.68 0 0 0 .111 3.354z"/></symbol><symbol viewBox="0 0 18 16" id="mail" xmlns="http://www.w3.org/2000/svg"><path d="M1.728 5.288c.227.16.914.638 2.059 1.431a503.46 503.46 0 0 1 2.631 1.833l.427.307c.218.157.399.285.543.382.144.097.318.206.522.326.204.12.397.211.578.27.18.061.348.091.502.091h.02c.154 0 .322-.03.502-.09.181-.06.374-.15.578-.271.204-.12.378-.23.522-.326a20.8 20.8 0 0 0 .543-.382c.217-.158.36-.26.427-.307l4.7-3.264a4.772 4.772 0 0 0 1.226-1.236c.328-.482.492-.987.492-1.516 0-.442-.16-.82-.477-1.135a1.553 1.553 0 0 0-1.13-.472H1.607c-.516 0-.912.174-1.19.522C.139 1.799 0 2.234 0 2.757c0 .422.184.879.552 1.37.369.493.76.88 1.176 1.161z"/><path d="M16.995 6.363c-2.196 1.486-3.863 2.641-5.002 3.465-.381.281-.691.5-.929.658a5.731 5.731 0 0 1-.949.482c-.395.164-.763.246-1.105.246h-.02c-.342 0-.71-.082-1.105-.246a5.735 5.735 0 0 1-.95-.482 23.715 23.715 0 0 1-.928-.658c-.904-.663-2.568-1.818-4.992-3.465A5.32 5.32 0 0 1 0 5.489v7.975c0 .442.157.82.472 1.135.315.315.693.472 1.135.472h14.786c.442 0 .82-.157 1.135-.472.315-.315.472-.693.472-1.135V5.489a5.54 5.54 0 0 1-1.005.874z"/></symbol><symbol viewBox="0 0 18 18" id="phone" xmlns="http://www.w3.org/2000/svg"><g clip-path="url(#cclip0)"><path d="M17.596 14.225l-2.78-2.78c-.553-.551-1.47-.534-2.043.039l-1.4 1.4-.277-.154c-.884-.49-2.095-1.162-3.368-2.436-1.278-1.277-1.95-2.49-2.442-3.375-.052-.093-.101-.184-.15-.27l.94-.938.462-.463c.574-.574.59-1.49.037-2.044L3.795.424c-.552-.552-1.47-.536-2.043.038l-.784.788.022.022A4.53 4.53 0 0 0 .344 2.41a4.76 4.76 0 0 0-.287 1.155C-.31 6.608 1.08 9.39 4.854 13.163c5.217 5.216 9.42 4.822 9.602 4.803a4.696 4.696 0 0 0 1.158-.291c.413-.161.8-.38 1.135-.643l.017.015.793-.777c.573-.574.59-1.49.037-2.045z"/></g><defs><clipPath id="cclip0"><path d="M0 0h18v18H0z"/></clipPath></defs></symbol><symbol viewBox="0 0 18 18" id="search" xmlns="http://www.w3.org/2000/svg"><path d="M17.424 16.395L13.14 11.94a7.244 7.244 0 0 0 1.705-4.673C14.845 3.26 11.585 0 7.578 0 3.571 0 .311 3.26.311 7.267c0 4.008 3.26 7.268 7.267 7.268a7.19 7.19 0 0 0 4.164-1.315l4.316 4.49a.94.94 0 0 0 .683.29.949.949 0 0 0 .683-1.605zm-9.846-14.5a5.378 5.378 0 0 1 5.372 5.372 5.378 5.378 0 0 1-5.372 5.372 5.378 5.378 0 0 1-5.372-5.372 5.378 5.378 0 0 1 5.372-5.371z"/></symbol></svg>