<svg width="75" height="75" viewBox="0 0 75 75" fill="none" xmlns="http://www.w3.org/2000/svg">
<path d="M52.8457 42.3722C55.3983 39.0062 56.7475 34.9886 56.7475 30.7534C56.7475 25.5608 54.711 20.6931 51.013 17.0469C47.3156 13.4015 42.4152 11.4329 37.2219 11.5079C32.1891 11.5792 27.4476 13.5986 23.8707 17.1943C20.2939 20.7898 18.299 25.542 18.2533 30.5752C18.2141 34.8902 19.5712 38.9801 22.1778 42.403C26.4093 47.9597 28.7399 54.7663 28.7399 61.5689V69.0122C28.7399 72.3139 31.4259 75 34.7276 75H40.2972C43.5989 75 46.2849 72.3138 46.2849 69.0122V61.5693C46.2851 54.6916 48.5373 48.0532 52.8457 42.3722ZM24.1412 40.908C21.8695 37.925 20.6868 34.3598 20.7208 30.5978C20.8029 21.5601 28.2208 14.1033 37.2567 13.9755C41.7897 13.9146 46.0572 15.6264 49.2803 18.8044C52.5043 21.983 54.2798 26.2267 54.2798 30.7536C54.2798 34.4457 53.104 37.9477 50.8794 40.8812C46.3399 46.8672 43.8956 53.8506 43.7956 61.1052H31.2042C31.101 53.921 28.602 46.7658 24.1412 40.908ZM31.2076 68.176V67.1771L43.8173 68.6217V69.0122C43.8173 69.2179 43.796 69.4183 43.7621 69.6142L31.2076 68.176ZM31.2076 64.6932V63.573H43.8173V66.1378L31.2076 64.6932ZM34.7276 72.5324C33.4021 72.5324 32.2464 71.7954 31.6461 70.71L42.2684 71.927C41.7056 72.3088 41.0271 72.5322 40.2973 72.5322H34.7276V72.5324Z" fill="#E18C44"/>
<path d="M25.2986 32.6096C25.2024 31.9639 25.1565 31.3005 25.1625 30.6382C25.1688 29.9567 24.6215 29.3994 23.94 29.3931C23.2632 29.3872 22.7012 29.9342 22.695 30.6156C22.6877 31.407 22.7425 32.2003 22.8578 32.9737C22.9491 33.586 23.4756 34.0257 24.0767 34.0257C24.1373 34.0257 24.1986 34.0213 24.2603 34.0121C24.9342 33.9114 25.3991 33.2836 25.2986 32.6096Z" fill="#4D64AA"/>
<path d="M32.5601 51.3514C32.6877 51.3514 32.8177 51.3313 32.9457 51.2894C33.5931 51.0765 33.9453 50.3791 33.7324 49.7319C32.3649 45.5734 30.3269 41.699 27.6749 38.2167C27.2366 37.6411 26.8482 37.0279 26.5207 36.394C26.2077 35.7886 25.4633 35.5517 24.8579 35.8646C24.2526 36.1775 24.0156 36.922 24.3285 37.5274C24.7217 38.2878 25.1869 39.0227 25.7117 39.7118C28.1969 42.9752 30.1068 46.6058 31.3882 50.5027C31.559 51.022 32.0415 51.3514 32.5601 51.3514Z" fill="#4D64AA"/>
<path d="M50.4645 34.9784C49.8387 34.7088 49.1126 34.9977 48.8432 35.6235C48.4523 36.5313 47.9464 37.3972 47.3397 38.197C46.9279 38.7399 47.0343 39.514 47.5772 39.9258C47.8001 40.0949 48.062 40.1765 48.3218 40.1765C48.6948 40.1765 49.0633 40.0082 49.306 39.688C50.033 38.7294 50.6397 37.6903 51.1095 36.5997C51.3792 35.9739 51.0905 35.2479 50.4645 34.9784Z" fill="#4D64AA"/>
<path d="M37.5 18.4155C44.3031 18.4155 49.8378 23.9503 49.8378 30.7534C49.8378 31.1402 49.82 31.5299 49.785 31.9118C49.7228 32.5904 50.2222 33.1909 50.9009 33.2533C50.9392 33.2567 50.9772 33.2585 51.015 33.2585C51.6456 33.2585 52.1836 32.7776 52.2423 32.1373C52.2841 31.6808 52.3055 31.2152 52.3055 30.7534C52.3055 22.5896 45.6638 15.9478 37.5 15.9478C36.8186 15.9478 36.2661 16.5002 36.2661 17.1816C36.2661 17.8631 36.8186 18.4155 37.5 18.4155Z" fill="#4D64AA"/>
<path d="M37.5 9.37745C38.1814 9.37745 38.7339 8.825 38.7339 8.14358V1.23388C38.7339 0.552447 38.1814 0 37.5 0C36.8186 0 36.2661 0.552447 36.2661 1.23388V8.14358C36.2661 8.825 36.8186 9.37745 37.5 9.37745Z" fill="#4D64AA"/>
<path d="M25.0171 11.8157C25.2458 12.2117 25.6604 12.433 26.0868 12.433C26.2961 12.433 26.5083 12.3797 26.7026 12.2675C27.2927 11.9268 27.4951 11.1721 27.1543 10.582L23.7011 4.60018C23.3603 4.00989 22.6058 3.8077 22.0157 4.14841C21.4255 4.48913 21.2232 5.24377 21.5639 5.83389L25.0171 11.8157Z" fill="#4D64AA"/>
<path d="M63.8684 44.7672L57.8866 41.314C57.2963 40.9731 56.5417 41.1755 56.2011 41.7658C55.8604 42.3559 56.0626 43.1105 56.6529 43.4512L62.6347 46.9044C62.829 47.0166 63.0411 47.07 63.2505 47.07C63.6769 47.07 64.0917 46.8485 64.3202 46.4527C64.6609 45.8626 64.4586 45.1079 63.8684 44.7672Z" fill="#4D64AA"/>
<path d="M11.1314 17.17L17.1133 20.6232C17.3075 20.7354 17.5196 20.7887 17.729 20.7887C18.1555 20.7887 18.5702 20.5673 18.7987 20.1714C19.1394 19.5813 18.9372 18.8267 18.347 18.486L12.3651 15.0328C11.775 14.6919 11.0204 14.8942 10.6797 15.4845C10.339 16.0746 10.5411 16.8291 11.1314 17.17Z" fill="#4D64AA"/>
<path d="M67.2344 29.7349H60.3247C59.6433 29.7349 59.0908 30.2873 59.0908 30.9687C59.0908 31.6502 59.6433 32.2026 60.3247 32.2026H67.2344C67.9158 32.2026 68.4683 31.6502 68.4683 30.9687C68.4683 30.2873 67.916 29.7349 67.2344 29.7349Z" fill="#4D64AA"/>
<path d="M15.9087 30.9687C15.9087 30.2873 15.3562 29.7349 14.6748 29.7349H7.76512C7.0837 29.7349 6.53125 30.2873 6.53125 30.9687C6.53125 31.6502 7.0837 32.2026 7.76512 32.2026H14.6748C15.3564 32.2026 15.9087 31.6502 15.9087 30.9687Z" fill="#4D64AA"/>
<path d="M57.2708 20.7886C57.4801 20.7886 57.6923 20.7353 57.8866 20.6231L63.8684 17.1699C64.4585 16.8292 64.6609 16.0745 64.3202 15.4844C63.9795 14.8943 63.2247 14.6919 62.6347 15.0327L56.6529 18.4859C56.0628 18.8266 55.8604 19.5812 56.2011 20.1713C56.4296 20.5672 56.8445 20.7886 57.2708 20.7886Z" fill="#4D64AA"/>
<path d="M17.1132 41.3144L11.1314 44.7676C10.5413 45.1083 10.3389 45.863 10.6796 46.4531C10.9081 46.8489 11.3229 47.0704 11.7493 47.0704C11.9586 47.0704 12.1708 47.017 12.3651 46.9048L18.3469 43.4517C18.937 43.1109 19.1394 42.3563 18.7987 41.7662C18.4581 41.1759 17.703 40.9737 17.1132 41.3144Z" fill="#4D64AA"/>
<path d="M48.2974 12.2675C48.4917 12.3797 48.7038 12.433 48.9132 12.433C49.3396 12.433 49.7544 12.2115 49.9829 11.8157L53.4361 5.83389C53.7768 5.24377 53.5744 4.48913 52.9843 4.14841C52.3944 3.8077 51.6396 4.00989 51.2988 4.60018L47.8456 10.582C47.5049 11.1721 47.7073 11.9268 48.2974 12.2675Z" fill="#4D64AA"/>
</svg>
