<svg width="75" height="75" viewBox="0 0 75 75" fill="none" xmlns="http://www.w3.org/2000/svg">
<g clip-path="url(#clip0)">
<path d="M72.958 11.9253L63.3479 0.725121C63.3296 0.70388 63.3107 0.683373 63.2909 0.663744C62.4516 -0.175465 61.0909 -0.225124 60.1929 0.550365L52.5352 7.16252C52.0806 7.55481 51.8061 8.1009 51.7625 8.69958C51.7188 9.29841 51.9107 9.87834 52.303 10.3327L52.6028 10.6801L52.1089 11.1066C50.798 12.2388 48.825 12.5775 46.8321 12.0122C46.7917 12.0008 41.1201 10.3912 41.0791 10.3817C40.0453 10.1414 37.3708 9.76204 34.8166 11.41C34.7754 11.4336 20.1404 19.8098 20.1007 19.8358C18.765 20.706 16.9043 22.8816 18.4047 25.5154C18.4106 25.5257 18.4166 25.5358 18.4228 25.5459C19.0657 26.5944 19.9926 27.2187 21.0744 27.392C21.1147 28.4671 21.5934 29.4974 22.4452 30.2347C24.1004 31.6673 26.6131 31.4864 28.0459 29.831L33.4701 23.5638C33.69 23.3098 33.8742 23.0312 34.0225 22.7323L34.2463 22.6401C34.5387 23.7365 35.338 24.828 36.9715 25.291C43.7772 27.2212 45.1938 27.7803 47.0993 27.5697C52.4114 27.0003 53.6288 26.8261 56.3042 25.2863C58.2286 24.1787 60.1015 22.884 61.8853 21.4311L62.2115 21.8089C63.0246 22.7504 64.4436 22.8516 65.382 22.0411L72.6716 15.7468C73.8009 14.7718 73.9292 13.0575 72.958 11.9253ZM26.3845 28.3925C25.2856 29.6621 23.2115 28.8204 23.2721 27.1736C23.2721 27.1736 29.7634 24.4883 29.7639 24.4881L26.3845 28.3925ZM55.2082 23.3816C52.932 24.6917 52.1657 24.8162 46.888 25.3821C45.4427 25.5371 44.3101 25.0881 37.5712 23.1768C36.708 22.932 36.4825 22.4704 36.3882 22.1447C36.2591 21.6995 36.3415 21.2741 36.3412 21.2741C36.3423 21.269 36.3425 21.2638 36.3437 21.2587C36.3457 21.2492 36.3485 21.24 36.3503 21.2304C36.3508 21.2277 36.4197 20.934 36.6091 20.6783C36.7729 20.4574 37.0194 20.2423 37.6091 20.3237C39.6882 20.6098 44.6391 21.2718 44.6887 21.2785C45.2918 21.3589 45.8432 20.9364 45.9234 20.335C46.0039 19.7335 45.5816 19.1807 44.9801 19.1003C44.9303 19.0937 39.9837 18.4323 37.9087 18.1468C35.9662 17.8792 34.8215 19.0787 34.3705 20.2119L32.768 20.8727C20.1192 26.088 22.9708 24.9558 22.032 25.2268C20.2651 25.4748 19.0544 23.1755 21.2763 21.6932L35.9329 13.3033C35.9339 13.3029 35.935 13.3023 35.936 13.3017C35.9537 13.2914 35.9713 13.2807 35.9884 13.2696C37.8236 12.0749 39.7771 12.3391 40.5571 12.5168L46.2325 14.1267C48.9388 14.894 51.6728 14.3868 53.545 12.7702L54.039 12.3437C54.877 13.3143 59.7048 18.9054 60.4494 19.7678C58.7717 21.13 57.0129 22.3428 55.2082 23.3816ZM71.2357 14.0833C71.2124 14.1034 63.9402 20.3934 63.9095 20.3898C63.8675 20.3867 53.9055 8.88269 53.9712 8.826L61.6289 2.21369H61.6291C61.6439 2.20095 61.6623 2.19465 61.6808 2.19465C61.6957 2.19465 61.7105 2.19875 61.7234 2.20696L71.29 13.3565C71.4749 13.5717 71.4506 13.8979 71.2357 14.0833Z" fill="#E18C44"/>
<path d="M54.1383 47.6586C54.0059 44.1154 49.5347 42.4837 47.1669 45.2198L41.7423 51.4873C41.5225 51.7413 41.3383 52.0197 41.1904 52.3184L40.9665 52.4107C40.6742 51.3143 39.8748 50.2228 38.2414 49.7598C31.0368 47.7163 30.0976 47.3067 28.1348 47.479C28.1278 47.4796 28.1207 47.4803 28.1137 47.4811C22.8016 48.0506 21.584 48.2248 18.9086 49.7645C16.9841 50.8722 15.1112 52.167 13.3276 53.6199L13.0014 53.2421C12.191 52.3039 10.7688 52.1998 9.83085 53.01L2.14409 59.6467C1.22856 60.437 1.13291 61.8193 1.93051 62.7286L12.0611 74.2734C12.8194 75.1375 14.1387 75.2457 14.9997 74.5176C15.0032 74.5145 15.0164 74.5033 15.0201 74.5003L22.6778 67.888C23.6181 67.076 23.7223 65.658 22.9102 64.7176L22.6103 64.3703L23.1042 63.9439C24.4153 62.8117 26.3884 62.4733 28.381 63.0383L33.4762 64.4835C34.0598 64.6486 34.6676 64.3101 34.8332 63.7263C34.9988 63.1425 34.6597 62.535 34.0759 62.3695L28.9806 60.9242C26.2742 60.1568 23.5405 60.6639 21.6681 62.2805L21.1742 62.707L14.7637 55.283C16.4411 53.9208 18.1999 52.7078 20.0048 51.6689C22.2829 50.3577 23.0478 50.2341 28.3371 49.6672C29.5736 49.5595 30.3466 49.7823 34.5851 50.9999C37.8694 51.9433 38.5474 51.9481 38.8248 52.9058C38.9539 53.351 38.8715 53.7764 38.8718 53.7764C38.8178 54.0125 38.7163 54.2208 38.604 54.3723C38.4401 54.593 38.1926 54.8081 37.6041 54.7269C35.5248 54.4408 30.5741 53.7789 30.5244 53.7721C29.9215 53.6922 29.3701 54.114 29.2897 54.7156C29.2093 55.3171 29.6316 55.8699 30.2331 55.9504C30.2829 55.9569 35.2295 56.6183 37.3044 56.9038C39.0206 57.1402 40.293 56.2168 40.8419 54.839C40.8967 54.8164 51.9066 50.2786 51.9595 50.2523C53.1199 49.6629 54.2162 49.5282 54.9075 50.6379C55.703 52.0596 54.2922 53.1204 53.9369 53.3574L39.2802 61.7472C39.2736 61.751 39.2672 61.7548 39.2607 61.7586C39.2492 61.7655 39.236 61.7737 39.2248 61.781C38.9824 61.9388 38.7236 62.0796 38.4554 62.1992C37.9014 62.4466 37.6528 63.0966 37.9003 63.6506C38.1478 64.2049 38.7981 64.4533 39.3516 64.2056C39.7166 64.0426 40.0702 63.8511 40.3976 63.6395C40.4411 63.6146 55.0701 55.2418 55.1121 55.2144C59.0971 52.6197 57.1803 48.1454 54.1383 47.6586ZM21.247 66.1537C21.2511 66.1584 21.2606 66.1694 21.2591 66.1902C21.2566 66.2224 13.6884 72.7466 13.6641 72.7677L3.59707 61.2956L11.2671 54.6727C11.2718 54.6688 11.2844 54.6584 11.3035 54.6607C11.3244 54.6622 11.3339 54.6733 11.3379 54.678C12.3727 55.8764 20.1861 64.9252 21.247 66.1537ZM45.4493 50.5624L48.8287 46.6577C49.9138 45.4038 52.0021 46.2085 51.9409 47.8767C51.9407 47.8769 45.4503 50.5619 45.4493 50.5624Z" fill="#E18C44"/>
<path d="M36.349 34.1428C36.5545 34.5054 37.1614 34.9913 37.8788 34.9738C38.4722 34.9599 39.0216 34.6063 39.3191 34.1273C40.7345 31.8533 43.6954 32.3658 44.5792 34.4358C44.8176 34.9936 45.4631 35.2532 46.0214 35.0147C46.5795 34.7764 46.8386 34.1307 46.6003 33.5727C45.0997 30.0597 40.3149 29.2639 37.8344 32.4218C34.8272 28.569 28.6473 30.7577 28.6519 35.599C28.6571 40.6891 33.0644 44.5819 37.1875 46.5279C37.6119 46.7283 38.095 46.7181 38.4978 46.5266C41.4622 45.1202 44.6137 42.6246 46.0722 39.6108C46.3366 39.0646 46.108 38.4074 45.5619 38.1432C45.0153 37.8785 44.3585 38.1073 44.0942 38.6535C42.9058 41.109 40.2738 43.1758 37.8394 44.4023C34.41 42.7065 30.8537 39.5509 30.8496 35.5968C30.8469 32.615 34.8483 31.5023 36.349 34.1428Z" fill="#4D64AA"/>
</g>
<defs>
<clipPath id="clip0">
<rect width="75" height="75" fill="white"/>
</clipPath>
</defs>
</svg>
