<svg width="63" height="63" viewBox="0 0 63 63" fill="none" xmlns="http://www.w3.org/2000/svg">
<path d="M5.0806 6.09677H35.5645V13.2097C35.5645 13.7718 36.0185 14.2258 36.5806 14.2258H43.6935V22.3548H45.7258V13.2097C45.7258 12.9284 45.6112 12.6743 45.4271 12.4902L37.301 4.36419C37.116 4.17913 36.8619 4.06452 36.5806 4.06452H9.14511V2.03226H47.758V24.3871H49.7903V1.01613C49.7903 0.453983 49.3363 0 48.7742 0H8.12899C7.56684 0 7.11286 0.453983 7.11286 1.01613V4.06452H4.06447C3.50232 4.06452 3.04834 4.5185 3.04834 5.08065V61.9839C3.04834 62.546 3.50232 63 4.06447 63H38.6129V60.9677H5.0806V6.09677ZM37.5967 7.53364L42.2566 12.1935H37.5967V7.53364Z" fill="#E18C44"/>
<path d="M58.9355 30.4837H57.4054C52.868 30.4837 48.6006 28.4852 45.6966 25.0007L45.4912 24.7536C45.1061 24.2892 44.3143 24.2892 43.9293 24.7536L43.7238 24.9997C40.8188 28.4852 36.5514 30.4837 32.014 30.4837H30.4839C29.9218 30.4837 29.4678 30.9377 29.4678 31.4998V47.9568C29.4678 51.9583 31.6261 55.6775 35.1001 57.6622L44.2056 62.8659C44.3614 62.9552 44.536 62.9998 44.7097 62.9998C44.8834 62.9998 45.058 62.9552 45.2138 62.8659L54.3193 57.6622C57.7934 55.6775 59.9516 51.9583 59.9516 47.9568V31.4998C59.9516 30.9377 59.4977 30.4837 58.9355 30.4837ZM57.9194 47.9568C57.9194 51.231 56.1546 54.2734 53.3111 55.8968L44.7097 60.8142L36.1083 55.8983C33.2649 54.2734 31.5 51.231 31.5 47.9568V32.5159H32.014C36.863 32.5159 41.442 30.5011 44.7097 26.9565C47.9764 30.5011 52.5564 32.5159 57.4054 32.5159H57.9194V47.9568Z" fill="#E18C44"/>
<path d="M44.7096 33.5322C38.5469 33.5322 33.5322 38.5469 33.5322 44.7096C33.5322 50.8724 38.5469 55.8871 44.7096 55.8871C50.8724 55.8871 55.8871 50.8724 55.8871 44.7096C55.8871 38.5469 50.8724 33.5322 44.7096 33.5322ZM44.7096 53.8548C39.6667 53.8548 35.5645 49.7526 35.5645 44.7096C35.5645 39.6667 39.6667 35.5645 44.7096 35.5645C49.7526 35.5645 53.8548 39.6667 53.8548 44.7096C53.8548 49.7526 49.7526 53.8548 44.7096 53.8548Z" fill="#4D64AA"/>
<path d="M44.2254 47.8688L42.3802 46.0236L40.9434 47.4605L43.9917 50.5089C44.1838 50.7019 44.4437 50.8066 44.7102 50.8066C44.7925 50.8066 44.8759 50.7966 44.9583 50.7763C45.3056 50.6885 45.5799 50.4245 45.6836 50.0822L48.732 39.9209L46.7851 39.3374L44.2254 47.8688Z" fill="#4D64AA"/>
<path d="M7.11279 16.2578H33.5322V18.2901H7.11279V16.2578Z" fill="#4D64AA"/>
<path d="M7.11279 20.3228H33.5322V22.355H7.11279V20.3228Z" fill="#4D64AA"/>
<path d="M7.11279 24.3872H33.5322V26.4195H7.11279V24.3872Z" fill="#4D64AA"/>
<path d="M7.11279 28.4517H27.4354V30.4839H7.11279V28.4517Z" fill="#4D64AA"/>
<path d="M7.11279 32.5161H27.4354V34.5484H7.11279V32.5161Z" fill="#4D64AA"/>
<path d="M7.11279 36.5806H27.4354V38.6128H7.11279V36.5806Z" fill="#4D64AA"/>
<path d="M7.11279 48.7744H27.4354V50.8067H7.11279V48.7744Z" fill="#4D64AA"/>
<path d="M7.11279 52.8389H27.4354V54.8711H7.11279V52.8389Z" fill="#4D64AA"/>
<path d="M7.11279 56.9033H27.4354V58.9356H7.11279V56.9033Z" fill="#4D64AA"/>
<path d="M8.12891 8.12891H10.1612V10.1612H8.12891V8.12891Z" fill="#4D64AA"/>
<path d="M12.1934 8.12891H14.2256V10.1612H12.1934V8.12891Z" fill="#4D64AA"/>
<path d="M16.2578 8.12891H18.2901V10.1612H16.2578V8.12891Z" fill="#4D64AA"/>
<path d="M20.3223 8.12891H33.5319V10.1612H20.3223V8.12891Z" fill="#4D64AA"/>
</svg>
