<svg width="68" height="63" viewBox="0 0 68 63" fill="none" xmlns="http://www.w3.org/2000/svg">
<path d="M60.8292 3.06055H16.858C13.042 3.06055 9.93728 5.91005 9.93728 9.4012L9.65391 45.2731H1.07272C0.464575 45.2731 0 45.7713 0 46.3347V51.2715C0 55.893 3.9919 59.6726 8.80972 59.8798V59.9391H45.8381V59.8723C46.1134 59.8828 46.28 59.9391 46.4693 59.9391H46.4957C51.6339 59.9112 55.7759 56.031 55.749 51.2705V19.8946H66.9273C67.5354 19.8946 68 19.3844 68 18.8215V9.76336C68.007 6.08192 64.8028 3.08695 60.8292 3.06055V3.06055ZM9.2915 57.8986H9.28397C5.36681 57.8986 2.20243 54.8992 2.20243 51.2705V47.3136H37.166V51.2536C37.1574 53.5501 38.1365 55.755 39.8868 57.381C40.0728 57.5544 40.2675 57.6435 40.4664 57.8986H9.2915ZM53.5466 51.2695C53.5466 54.8992 50.4128 57.8986 46.494 57.8986H46.4715C42.5333 57.8722 39.3593 54.9026 39.3684 51.2541V46.3347C39.3716 45.7633 38.8839 45.293 38.2672 45.2731H11.8563L12.1397 9.40817C12.1397 7.03541 14.2561 5.10103 16.858 5.10103H55.6301C54.3751 6.37634 53.5466 7.98989 53.5466 9.79076V51.2695ZM65.7976 9.7813V17.8541H55.749V9.78877C55.749 7.23517 58.0417 5.10103 60.7969 5.10103H60.8276C63.5898 5.12644 65.8105 7.21425 65.7976 9.77383V9.7813Z" fill="#E18C44"/>
<path d="M25.8584 28.1733L31.536 31.7695C31.9065 32.0061 32.3963 32.0061 32.7668 31.7695L38.4272 28.1742C40.3936 26.9313 41.8459 24.3329 41.8459 22.1295V14.8533C41.8577 14.4687 41.6287 14.112 41.2587 13.9372L32.6141 9.99768C32.3108 9.85819 31.9549 9.85819 31.6516 9.99768L23.0231 13.9262C22.6532 14.1011 22.4246 14.4578 22.437 14.8423V22.1295C22.437 24.3329 23.8926 26.9313 25.8584 28.1733ZM24.6394 15.479L32.1415 12.0496L39.6435 15.4885V22.1295C39.6435 23.6663 38.5562 25.6211 37.1846 26.4875L32.1285 29.6912L27.0924 26.488C25.7207 25.6207 24.6394 23.6663 24.6394 22.1295V15.479Z" fill="#4D64AA"/>
<path d="M30.2793 23.6697C30.4847 23.864 30.7654 23.9741 31.059 23.9756H31.0617C31.3542 23.9746 31.6343 23.866 31.8403 23.6737L36.2209 19.6136C36.6516 19.2151 36.6516 18.5685 36.2215 18.1699C35.7918 17.7709 35.0939 17.7709 34.6637 18.1694L31.0654 21.5027L29.6271 20.1571C29.1985 19.7566 28.5011 19.7536 28.0688 20.1506C27.6365 20.5477 27.6338 21.1938 28.0618 21.5943L30.2793 23.6697Z" fill="#4D64AA"/>
<path d="M45.838 34.6885H19.4088C18.8007 34.6885 18.3076 35.1453 18.3076 35.7087C18.3076 36.2721 18.8007 36.729 19.4088 36.729H45.838C46.4461 36.729 46.9392 36.2721 46.9392 35.7087C46.9392 35.1453 46.4461 34.6885 45.838 34.6885Z" fill="#4D64AA"/>
<path d="M45.838 39.4067H19.4088C18.8007 39.4067 18.3076 39.8636 18.3076 40.427C18.3076 40.9904 18.8007 41.4472 19.4088 41.4472H45.838C46.4461 41.4472 46.9392 40.9904 46.9392 40.427C46.9392 39.8636 46.4461 39.4067 45.838 39.4067Z" fill="#4D64AA"/>
</svg>
