<svg width="75" height="75" viewBox="0 0 75 75" fill="none" xmlns="http://www.w3.org/2000/svg">
<path d="M37.5468 67.2174C46.8004 67.2174 54.3284 59.6895 54.3284 50.4364C54.3284 41.1827 46.8004 33.6548 37.5468 33.6548C28.2936 33.6548 20.7651 41.1827 20.7651 50.4364C20.7651 59.6895 28.2936 67.2174 37.5468 67.2174ZM37.5468 35.8927C45.5662 35.8927 52.0905 42.4164 52.0905 50.4364C52.0905 58.4558 45.5662 64.9801 37.5468 64.9801C29.5273 64.9801 23.003 58.4558 23.003 50.4364C23.003 42.4164 29.5273 35.8927 37.5468 35.8927Z" fill="#4D64AA"/>
<path d="M64.7374 4.7699L55.2445 0.113869C55.0895 0.0377654 54.9212 0.000572205 54.7519 0.000572205V0H20.3429V0.000572205C20.1735 0.000572205 20.0047 0.0377654 19.8497 0.113869L10.3568 4.7699C6.50814 6.65817 4.91226 11.3256 6.79997 15.1743L17.289 36.561C14.5745 40.5115 12.9838 45.2911 12.9838 50.4364C12.9838 53.0228 13.3838 55.5708 14.1734 58.0095C14.3639 58.5972 14.9945 58.9199 15.5827 58.7294C16.1704 58.5388 16.4925 57.9082 16.3026 57.32C15.585 55.1044 15.2211 52.7882 15.2211 50.4358C15.2211 38.1254 25.237 28.1101 37.5474 28.1101C49.8578 28.1101 59.8737 38.1254 59.8737 50.4358C59.8737 62.7468 49.8584 72.7621 37.5474 72.7621C29.3517 72.7621 21.8278 68.2835 17.9133 61.0737C17.6186 60.5307 16.9394 60.3292 16.3958 60.6239C15.8528 60.9192 15.652 61.5984 15.9467 62.1414C20.2531 70.0727 28.53 75 37.5474 75C51.092 75 62.111 63.9805 62.111 50.4364C62.111 45.2911 60.5203 40.5115 57.8057 36.5604L62.1585 27.685C62.4303 27.1305 62.2014 26.4599 61.6464 26.1881C61.0919 25.9157 60.4213 26.1452 60.1489 26.6996L56.2871 34.5743C53.0112 30.7096 48.564 27.8687 43.4995 26.6029L55.2634 2.61555L63.7521 6.77891C66.4929 8.12359 67.6293 11.4475 66.2852 14.189L62.1339 22.6536C61.8615 23.208 62.091 23.8787 62.6454 24.1505C63.2005 24.4228 63.8705 24.1934 64.1429 23.6389L68.2942 15.1743C70.1819 11.3251 68.5866 6.65817 64.7374 4.7699ZM22.1379 2.23789H52.9563L45.7803 16.8703H29.3151L22.1379 2.23789ZM18.8071 34.5749L8.80898 14.189C7.46487 11.4475 8.60127 8.12359 11.3421 6.77891L19.8308 2.61555L31.5959 26.6029C26.5307 27.8681 22.0836 30.7096 18.8071 34.5749ZM37.5474 25.8722C36.2965 25.8722 35.0669 25.9666 33.8658 26.148L30.4126 19.1082H44.6828L41.2301 26.1486C40.0285 25.9666 38.7988 25.8722 37.5474 25.8722Z" fill="#E18C44"/>
<path d="M29.6385 52.4719C29.9601 52.7861 30.1071 53.2381 30.031 53.681L29.6414 55.9544C29.4073 57.3162 29.9566 58.6666 31.0747 59.4791C31.7065 59.9381 32.4452 60.1709 33.189 60.1709C33.7618 60.1709 34.3374 60.033 34.8696 59.7532L36.9112 58.6798C37.3095 58.4703 37.7844 58.4703 38.1827 58.6798L40.2243 59.7532C41.4477 60.3964 42.9016 60.2911 44.0191 59.4791C45.1372 58.6666 45.6866 57.3162 45.4531 55.9544L45.0628 53.681C44.9867 53.2381 45.1338 52.7861 45.4554 52.4719L47.1073 50.8617C48.0967 49.8976 48.4463 48.482 48.0194 47.1682C47.5926 45.8538 46.4779 44.9143 45.1103 44.7157L42.8278 44.3838C42.3826 44.3192 41.9981 44.0399 41.799 43.6365L40.7782 41.5686C40.1671 40.3292 38.9288 39.5596 37.5469 39.5596C36.1651 39.5596 34.9268 40.3292 34.3157 41.5686L33.2949 43.6371C33.0958 44.0399 32.7112 44.3192 32.2666 44.3838L29.9835 44.7157C28.616 44.9143 27.5019 45.8544 27.0745 47.1682C26.6476 48.482 26.9972 49.8976 27.9865 50.8623L29.6385 52.4719ZM29.2031 47.8594C29.3673 47.3541 29.7793 47.0062 30.3057 46.9301L32.5882 46.5983C33.7624 46.4277 34.7763 45.6907 35.3016 44.627L36.3224 42.5585C36.5576 42.0818 37.0154 41.7969 37.5469 41.7969C38.0785 41.7969 38.5363 42.0818 38.7715 42.5585L39.7928 44.627C40.3176 45.6907 41.3321 46.4277 42.5057 46.5983L44.7888 46.9301C45.3146 47.0062 45.7266 47.3541 45.8914 47.8594C46.0556 48.3652 45.9263 48.8882 45.5458 49.2596L43.8938 50.8698C43.0441 51.6977 42.6567 52.8902 42.8576 54.0592L43.2472 56.3326C43.3371 56.8567 43.1339 57.3563 42.7042 57.6687C42.2739 57.9811 41.7366 58.02 41.2657 57.7723L39.2241 56.6988C38.6988 56.423 38.1232 56.2851 37.5469 56.2851C36.9713 56.2851 36.3951 56.423 35.8704 56.6988L33.8282 57.7723C33.3578 58.0195 32.82 57.9805 32.3897 57.6681C31.9599 57.3557 31.7568 56.8567 31.8466 56.3326L32.2363 54.0592C32.4372 52.8896 32.0498 51.6972 31.2001 50.8692L29.5481 49.2596C29.1682 48.8882 29.0388 48.3652 29.2031 47.8594Z" fill="#4D64AA"/>
</svg>
