<svg width="74" height="75" viewBox="0 0 74 75" fill="none" xmlns="http://www.w3.org/2000/svg">
<g clip-path="url(#clip0)">
<path d="M9.91507 75H56.7816C58.8248 75 60.4812 73.3212 60.4812 71.2498V12.4998H65.4151C66.7774 12.4998 67.8817 11.3806 67.8817 9.99985V6.25019C67.8772 2.7998 65.1187 0.00400544 61.7148 0H9.91507C7.87131 0 6.21484 1.67885 6.21484 3.75023V71.2498C6.21484 73.3212 7.87131 75 9.91507 75ZM61.7148 2.49996C63.758 2.49996 65.4151 4.17881 65.4151 6.25019V9.99985H16.0814V6.25019C16.0768 4.89292 15.6325 3.57571 14.8161 2.49996H61.7148ZM8.68147 3.75023C8.68147 3.05958 9.23363 2.49996 9.91507 2.49996C11.9583 2.49996 13.6147 4.17881 13.6147 6.25019V9.99985C13.6147 11.3806 14.719 12.4998 16.0814 12.4998H58.0146V71.2498C58.0146 71.9404 57.4625 72.5 56.7816 72.5H9.91507C9.23363 72.5 8.68147 71.9404 8.68147 71.2498V3.75023Z" fill="#E18C44"/>
<path d="M16.0814 31.2498H23.4813C24.8436 31.2498 25.9485 30.1306 25.9485 28.7498V27.5002C25.9485 26.8095 25.3957 26.2499 24.7149 26.2499C24.034 26.2499 23.4813 26.8095 23.4813 27.5002V28.7498H16.0814V21.25H19.7816C20.4625 21.25 21.0146 20.6903 21.0146 20.0003C21.0146 19.3096 20.4625 18.75 19.7816 18.75H16.0814C14.7191 18.75 13.6147 19.8692 13.6147 21.25V28.7498C13.6147 30.1306 14.7191 31.2498 16.0814 31.2498Z" fill="#4D64AA"/>
<path d="M16.0814 48.7499H23.4813C24.8436 48.7499 25.9485 47.6307 25.9485 46.2499V38.75C25.9485 37.3693 24.8436 36.2495 23.4813 36.2495H16.0814C14.7191 36.2495 13.6147 37.3693 13.6147 38.75V46.2499C13.6147 47.6307 14.7191 48.7499 16.0814 48.7499ZM16.0814 38.75H23.4813V46.2499H16.0814V38.75Z" fill="#4D64AA"/>
<path d="M16.0814 66.2498H23.4813C24.8436 66.2498 25.9485 65.1306 25.9485 63.7498V56.25C25.9485 54.8692 24.8436 53.75 23.4813 53.75H16.0814C14.7191 53.75 13.6147 54.8692 13.6147 56.25V63.7498C13.6147 65.1306 14.7191 66.2498 16.0814 66.2498ZM16.0814 56.25H23.4813V63.7498H16.0814V56.25Z" fill="#4D64AA"/>
<path d="M30.882 23.75H37.0483C37.7298 23.75 38.2819 23.1903 38.2819 22.5003C38.2819 21.8096 37.7298 21.25 37.0483 21.25H30.882C30.2006 21.25 29.6484 21.8096 29.6484 22.5003C29.6484 23.1903 30.2006 23.75 30.882 23.75Z" fill="#4D64AA"/>
<path d="M41.9811 23.75H54.3148C54.9957 23.75 55.5478 23.1903 55.5478 22.5003C55.5478 21.8096 54.9957 21.25 54.3148 21.25H41.9811C41.3002 21.25 40.748 21.8096 40.748 22.5003C40.748 23.1903 41.3002 23.75 41.9811 23.75Z" fill="#4D64AA"/>
<path d="M30.882 28.7495H43.2152C43.8961 28.7495 44.4488 28.1899 44.4488 27.4998C44.4488 26.8091 43.8961 26.2495 43.2152 26.2495H30.882C30.2006 26.2495 29.6484 26.8091 29.6484 27.4998C29.6484 28.1899 30.2006 28.7495 30.882 28.7495Z" fill="#4D64AA"/>
<path d="M54.3149 26.2495H48.1481C47.4672 26.2495 46.915 26.8091 46.915 27.4998C46.915 28.1899 47.4672 28.7495 48.1481 28.7495H54.3149C54.9958 28.7495 55.548 28.1899 55.548 27.4998C55.548 26.8091 54.9958 26.2495 54.3149 26.2495Z" fill="#4D64AA"/>
<path d="M30.882 41.2505H37.0483C37.7298 41.2505 38.2819 40.6908 38.2819 40.0002C38.2819 39.3101 37.7298 38.7505 37.0483 38.7505H30.882C30.2006 38.7505 29.6484 39.3101 29.6484 40.0002C29.6484 40.6908 30.2006 41.2505 30.882 41.2505Z" fill="#4D64AA"/>
<path d="M54.3148 38.7505H41.9811C41.3002 38.7505 40.748 39.3101 40.748 40.0002C40.748 40.6908 41.3002 41.2505 41.9811 41.2505H54.3148C54.9957 41.2505 55.5478 40.6908 55.5478 40.0002C55.5478 39.3101 54.9957 38.7505 54.3148 38.7505Z" fill="#4D64AA"/>
<path d="M30.882 46.25H43.2152C43.8961 46.25 44.4488 45.6903 44.4488 44.9997C44.4488 44.3096 43.8961 43.75 43.2152 43.75H30.882C30.2006 43.75 29.6484 44.3096 29.6484 44.9997C29.6484 45.6903 30.2006 46.25 30.882 46.25Z" fill="#4D64AA"/>
<path d="M54.3149 43.75H48.1481C47.4672 43.75 46.915 44.3096 46.915 44.9997C46.915 45.6903 47.4672 46.25 48.1481 46.25H54.3149C54.9958 46.25 55.548 45.6903 55.548 44.9997C55.548 44.3096 54.9958 43.75 54.3149 43.75Z" fill="#4D64AA"/>
<path d="M30.882 58.75H37.0483C37.7298 58.75 38.2819 58.1903 38.2819 57.5003C38.2819 56.8096 37.7298 56.25 37.0483 56.25H30.882C30.2006 56.25 29.6484 56.8096 29.6484 57.5003C29.6484 58.1903 30.2006 58.75 30.882 58.75Z" fill="#4D64AA"/>
<path d="M54.3148 56.25H41.9811C41.3002 56.25 40.748 56.8096 40.748 57.5003C40.748 58.1903 41.3002 58.75 41.9811 58.75H54.3148C54.9957 58.75 55.5478 58.1903 55.5478 57.5003C55.5478 56.8096 54.9957 56.25 54.3148 56.25Z" fill="#4D64AA"/>
<path d="M30.882 63.75H43.2152C43.8961 63.75 44.4488 63.1903 44.4488 62.5003C44.4488 61.8096 43.8961 61.25 43.2152 61.25H30.882C30.2006 61.25 29.6484 61.8096 29.6484 62.5003C29.6484 63.1903 30.2006 63.75 30.882 63.75Z" fill="#4D64AA"/>
<path d="M54.3149 61.25H48.1481C47.4672 61.25 46.915 61.8096 46.915 62.5003C46.915 63.1903 47.4672 63.75 48.1481 63.75H54.3149C54.9958 63.75 55.548 63.1903 55.548 62.5003C55.548 61.8096 54.9958 61.25 54.3149 61.25Z" fill="#4D64AA"/>
<path d="M19.4203 22.8664C18.9365 22.3927 18.167 22.3995 17.691 22.8813C17.2157 23.3637 17.2089 24.143 17.6763 24.634L20.143 27.1339C20.3745 27.368 20.6878 27.5002 21.0147 27.5002H21.1174C21.4788 27.4693 21.8085 27.2793 22.0191 26.98L28.1854 18.2299C28.4417 17.8665 28.4868 17.3922 28.3039 16.9859C28.1216 16.5791 27.7388 16.3021 27.3001 16.2592C26.8614 16.2163 26.4335 16.4143 26.1777 16.7776L20.8583 24.3261L19.4203 22.8664Z" fill="#4D64AA"/>
</g>
<defs>
<clipPath id="clip0">
<rect width="74" height="75" fill="white"/>
</clipPath>
</defs>
</svg>
