<svg width="20" height="20" viewBox="0 0 20 20" fill="none" xmlns="http://www.w3.org/2000/svg">
<path d="M0.739888 2.4036H2.86089L5.88211 13.3293C5.96842 13.6499 6.26437 13.8719 6.59732 13.8719H15.8829C16.1789 13.8719 16.4378 13.6992 16.5611 13.4279L19.9399 5.65911C20.0386 5.42483 20.0139 5.16587 19.8783 4.95622C19.7426 4.74657 19.5083 4.62327 19.2617 4.62327H9.00196C8.59502 4.62327 8.26207 4.95622 8.26207 5.36316C8.26207 5.77009 8.59502 6.10304 9.00196 6.10304H18.1273L15.3897 12.3921H7.15224L4.13106 1.46643C4.04475 1.14579 3.7488 0.923828 3.41585 0.923828H0.739888C0.33295 0.923828 0 1.25678 0 1.66372C0 2.07065 0.33295 2.4036 0.739888 2.4036Z" fill="white"/>
<path d="M5.89435 19.0758C6.81921 19.0758 7.57142 18.3236 7.57142 17.3987C7.57142 16.4739 6.81921 15.7217 5.89435 15.7217C4.96949 15.7217 4.21729 16.4738 4.21729 17.3987C4.21729 18.3236 4.96949 19.0758 5.89435 19.0758Z" fill="white"/>
<path d="M16.3761 19.0757C16.4131 19.0757 16.4624 19.0757 16.4994 19.0757C16.9433 19.0387 17.3503 18.8414 17.6462 18.4961C17.9422 18.1632 18.0778 17.7316 18.0532 17.2753C17.9915 16.3628 17.19 15.6599 16.2651 15.7215C15.3403 15.7832 14.6497 16.5971 14.7113 17.5096C14.773 18.3851 15.5005 19.0757 16.3761 19.0757Z" fill="white"/>
</svg>
