<svg width="101" height="29" viewBox="0 0 101 29" fill="none" xmlns="http://www.w3.org/2000/svg">
<g clip-path="url(#clip0)">
<path d="M37.0986 11.4004V3.10039H40.5986C43.1986 3.10039 44.9986 4.60039 44.9986 7.30039C44.9986 9.80039 43.0986 11.5004 40.5986 11.5004L37.0986 11.4004ZM42.7986 7.2004C42.7986 5.9004 41.9986 4.90039 40.4986 4.90039H39.0986V9.40039H40.4986C41.9986 9.50039 42.7986 8.5004 42.7986 7.2004ZM45.7986 7.2004C45.7986 4.7004 47.6986 2.90039 50.1986 2.90039C52.6986 2.90039 54.5986 4.6004 54.5986 7.2004C54.5986 9.8004 52.6986 11.5004 50.1986 11.5004C47.6986 11.5004 45.7986 9.8004 45.7986 7.2004ZM52.4986 7.2004C52.4986 5.8004 51.5986 4.80039 50.1986 4.80039C48.7986 4.80039 47.8986 5.8004 47.8986 7.2004C47.8986 8.5004 48.7986 9.60039 50.1986 9.60039C51.5986 9.60039 52.4986 8.6004 52.4986 7.2004ZM60.4986 11.4004L59.0986 8.60039H57.9986V11.4004H55.8986V3.10039H60.0986C61.8986 3.10039 62.8986 4.30039 62.8986 5.90039C62.8986 7.40039 61.9986 8.10039 61.1986 8.40039L62.8986 11.5004H60.4986V11.4004ZM60.7986 5.90039C60.7986 5.30039 60.3986 5.00038 59.7986 5.00038H58.0986V6.7004H59.7986C60.2986 6.7004 60.7986 6.40039 60.7986 5.90039ZM63.7986 7.2004C63.7986 4.7004 65.6986 2.90039 68.1986 2.90039C70.6986 2.90039 72.5986 4.6004 72.5986 7.2004C72.5986 9.8004 70.6986 11.5004 68.1986 11.5004C65.6986 11.5004 63.7986 9.8004 63.7986 7.2004ZM70.3986 7.2004C70.3986 5.8004 69.4986 4.80039 68.0986 4.80039C66.6986 4.80039 65.7986 5.8004 65.7986 7.2004C65.7986 8.5004 66.6986 9.60039 68.0986 9.60039C69.4986 9.60039 70.3986 8.6004 70.3986 7.2004ZM79.4986 11.4004V8.00038H76.0986V11.4004H73.8986V3.10039H76.0986V6.2004H79.4986V3.10039H81.5986V11.4004H79.4986ZM82.7986 7.2004C82.7986 4.7004 84.6986 2.90039 87.1986 2.90039C89.6986 2.90039 91.5986 4.6004 91.5986 7.2004C91.5986 9.8004 89.6986 11.5004 87.1986 11.5004C84.6986 11.5004 82.7986 9.8004 82.7986 7.2004ZM89.4986 7.2004C89.4986 5.8004 88.5986 4.80039 87.1986 4.80039C85.7986 4.80039 84.8986 5.8004 84.8986 7.2004C84.8986 8.5004 85.7986 9.60039 87.1986 9.60039C88.6986 9.60039 89.4986 8.6004 89.4986 7.2004ZM94.7986 11.4004L91.6986 3.10039H94.0986L96.0986 9.10039L98.0986 3.10039H100.499L97.3986 11.4004H94.7986ZM37.0986 25.2004V16.8004H40.5986C43.1986 16.8004 45.0986 18.3004 45.0986 21.0004C45.0986 23.6004 43.1986 25.2004 40.5986 25.2004H37.0986ZM42.9986 21.0004C42.9986 19.7004 42.1986 18.7004 40.6986 18.7004H39.2986V23.3004H40.6986C42.0986 23.3004 42.9986 22.3004 42.9986 21.0004ZM46.3986 25.2004V16.8004H52.4986V18.7004H48.5986V20.0004H52.3986V21.8004H48.5986V23.2004H52.4986V25.1004H46.3986V25.2004ZM53.4986 24.0004L54.5986 22.4004C55.1986 23.0004 56.0986 23.5004 57.1986 23.5004C57.8986 23.5004 58.3986 23.2004 58.3986 22.8004C58.3986 21.7004 53.6986 22.6004 53.6986 19.3004C53.6986 17.9004 54.8986 16.7004 56.9986 16.7004C58.2986 16.7004 59.4986 17.1004 60.3986 17.9004L59.1986 19.4004C58.4986 18.8004 57.5986 18.5004 56.7986 18.5004C56.1986 18.5004 55.8986 18.7004 55.8986 19.1004C55.8986 20.1004 60.5986 19.4004 60.5986 22.5004C60.5986 24.2004 59.2986 25.3004 57.0986 25.3004C55.4986 25.3004 54.3986 24.8004 53.4986 24.0004ZM61.8986 16.8004H63.9986V25.1004H61.8986V16.8004ZM65.3986 21.0004C65.3986 18.4004 67.4986 16.7004 69.8986 16.7004C71.6986 16.7004 72.8986 17.7004 73.3986 18.8004L71.5986 19.8004C71.2986 19.3004 70.5986 18.8004 69.7986 18.8004C68.3986 18.8004 67.3986 19.8004 67.3986 21.2004C67.3986 22.6004 68.3986 23.6004 69.7986 23.6004C70.3986 23.6004 71.0986 23.4004 71.2986 23.1004V22.4004H69.3986V20.5004H73.3986V23.8004C72.4986 24.8004 71.2986 25.4004 69.6986 25.4004C67.3986 25.3004 65.3986 23.6004 65.3986 21.0004ZM80.7986 25.2004L77.2986 20.3004V25.2004H75.1986V16.8004H77.3986L80.7986 21.4004V16.8004H82.8986V25.2004H80.7986Z" fill="#4D64AA" fill-opacity="0.43"/>
<path d="M11.299 0H-0.000976562V28.6H11.399C20.999 28.6 27.099 23 27.099 14.3C27.099 5.60001 20.899 0 11.299 0ZM11.099 22.9H5.99902V6.10001H11.099C17.099 6.10001 21.099 8.50002 21.099 14.2C21.199 19 17.399 22.9 11.099 22.9ZM12.199 10.9H10.899V17.7H12.199C14.799 17.7 16.299 16.2 16.299 14.2C16.299 11.9 14.599 10.9 12.199 10.9Z" fill="#4D64AA" fill-opacity="0.43"/>
</g>
<defs>
<clipPath id="clip0">
<rect width="101" height="29" fill="white" transform="translate(-0.000976562)"/>
</clipPath>
</defs>
</svg>
