<svg width="22" height="22" viewBox="0 0 22 22" fill="none" xmlns="http://www.w3.org/2000/svg">
<path d="M20.8061 9.46506H12.5348V1.19379C12.5348 0.817005 12.0232 0 11 0C9.97671 0 9.46506 0.81705 9.46506 1.19379V9.46511H1.19379C0.81705 9.46506 0 9.97671 0 10.9999C0 12.0231 0.81705 12.5348 1.19379 12.5348H9.46511V20.8061C9.46511 21.1828 9.97671 21.9999 11 21.9999C12.0233 21.9999 12.5349 21.1828 12.5349 20.8061V12.5348H20.8062C21.1829 12.5348 22 12.0232 22 10.9999C22 9.97662 21.1828 9.46506 20.8061 9.46506Z" fill="#E18C44"/>
</svg>
