<svg width="24" height="24" viewBox="0 0 24 24" fill="none" xmlns="http://www.w3.org/2000/svg">
<g clip-path="url(#clip0)">
<path d="M12.3275 8.5707C12.2489 8.46941 12.128 8.41016 11.9997 8.41016C11.8715 8.41016 11.7506 8.46941 11.672 8.5707L8.87201 12.5707C8.78656 12.6929 8.77615 12.8525 8.84506 12.9847C8.91397 13.117 9.05065 13.1999 9.19976 13.2H10.3998V17.6C10.3997 17.7061 10.4418 17.8079 10.5169 17.8829C10.5919 17.9579 10.6937 18 10.7997 18H13.1997C13.3059 18 13.4076 17.9579 13.4826 17.8829C13.5576 17.8078 13.5998 17.7061 13.5997 17.6V13.2H14.7997C14.9488 13.1999 15.0856 13.117 15.1544 12.9847C15.2233 12.8525 15.2129 12.6929 15.1275 12.5707L12.3275 8.5707ZM13.1997 12.4C13.0936 12.3999 12.9919 12.442 12.9169 12.5171C12.8419 12.5921 12.7997 12.6939 12.7998 12.8V17.2H11.1998V12.8C11.1998 12.6938 11.1577 12.5921 11.0827 12.5171C11.0076 12.4421 10.9059 12.3999 10.7998 12.4H9.96814L11.9997 9.49766L14.0314 12.4H13.1997V12.4Z" fill="#E18C44"/>
<path d="M10.9171 5.48294C10.9921 5.55794 11.0938 5.60008 11.1999 5.60013C11.2042 5.60013 11.2089 5.60013 11.2132 5.5997C11.3239 5.59619 11.4282 5.54683 11.5011 5.46339L14.3011 2.26338C14.3957 2.15585 14.4255 2.00594 14.3794 1.87038C14.3333 1.73481 14.2183 1.63422 14.0777 1.60661C13.9372 1.57905 13.7927 1.62869 13.6988 1.73678L11.1804 4.61491L10.2827 3.71725C10.1261 3.56345 9.87489 3.56463 9.71968 3.71978C9.56448 3.87494 9.56336 4.12624 9.71715 4.28285L10.9171 5.48294Z" fill="#E18C44"/>
<path d="M19.0827 0.117094C19.0077 0.0420469 18.9059 -4.68359e-05 18.7998 3.91075e-08H5.19979C5.09366 -4.68359e-05 4.9919 0.0420469 4.9169 0.117094C4.8419 0.192141 4.79976 0.293906 4.7998 0.399984V23.6C4.79976 23.7061 4.84185 23.8079 4.9169 23.8829C4.99195 23.9579 5.09371 24 5.19979 24H18.7998C18.9059 24 19.0077 23.9579 19.0827 23.8829C19.1577 23.8078 19.1998 23.706 19.1998 23.6V0.399984C19.1999 0.293906 19.1578 0.192141 19.0827 0.117094ZM18.3998 23.2H5.59982V21.6H6.39984C6.62076 21.6 6.79982 21.4209 6.79982 21.2C6.79982 20.9791 6.62076 20.8 6.39984 20.8H5.59982V19.6H7.1998C7.42073 19.6 7.59979 19.421 7.59979 19.2C7.59979 18.9791 7.42073 18.8001 7.1998 18.8001H5.59982V17.6001H6.39984C6.62076 17.6001 6.79982 17.421 6.79982 17.2001C6.79982 16.9792 6.62076 16.8001 6.39984 16.8001H5.59982V15.6001H6.39984C6.62076 15.6001 6.79982 15.421 6.79982 15.2001C6.79982 14.9792 6.62076 14.8001 6.39984 14.8001H5.59982V13.6001H7.1998C7.42073 13.6001 7.59979 13.4211 7.59979 13.2001C7.59979 12.9792 7.42073 12.8002 7.1998 12.8002H5.59982V11.6002H6.39984C6.62076 11.6002 6.79982 11.4211 6.79982 11.2002C6.79982 10.9792 6.62076 10.8002 6.39984 10.8002H5.59982V9.60019H6.39984C6.62076 9.60019 6.79982 9.42112 6.79982 9.2002C6.79982 8.97928 6.62076 8.80022 6.39984 8.80022H5.59982V7.2H17.1998C17.4208 7.2 17.5998 7.02089 17.5998 6.80001C17.5998 6.57914 17.4208 6.40003 17.1998 6.40003H5.59982V4.8H6.39984C6.62076 4.8 6.79982 4.62089 6.79982 4.40002C6.79982 4.17909 6.62076 4.00003 6.39984 4.00003H5.59982V2.80003H6.39984C6.62076 2.80003 6.79982 2.62097 6.79982 2.40005C6.79982 2.17912 6.62076 2.00006 6.39984 2.00006H5.59982V0.800062H18.3998V23.2H18.3998Z" fill="#E18C44"/>
<path d="M13.5992 19.5997C13.5992 19.4936 13.5571 19.3919 13.482 19.3169C13.407 19.2418 13.3053 19.1997 13.1992 19.1997C13.0932 19.1997 12.9914 19.2418 12.9164 19.3169L11.9992 20.2341L11.082 19.3169C10.9256 19.1624 10.6737 19.1632 10.5182 19.3187C10.3627 19.4742 10.3619 19.7261 10.5164 19.8825L11.4336 20.7997L10.5164 21.7169C10.4143 21.8177 10.374 21.9655 10.4109 22.1042C10.4477 22.2428 10.5561 22.3512 10.6947 22.388C10.8334 22.4248 10.9812 22.3846 11.082 22.2825L11.9992 21.3653L12.9164 22.2825C13.0729 22.437 13.3248 22.4362 13.4803 22.2808C13.6358 22.1253 13.6366 21.8734 13.4821 21.7169L12.5649 20.7997L13.4821 19.8825C13.5571 19.8075 13.5992 19.7058 13.5992 19.5997Z" fill="#E18C44"/>
</g>
<defs>
<clipPath id="clip0">
<rect width="24" height="24" fill="white"/>
</clipPath>
</defs>
</svg>
