<svg width="24" height="24" viewBox="0 0 24 24" fill="none" xmlns="http://www.w3.org/2000/svg">
<g clip-path="url(#clip0)">
<path d="M23.0493 5.29554L12.1523 0.0349453C12.0557 -0.0116484 11.9432 -0.0116484 11.8467 0.0349453L0.94968 5.29554C0.82818 5.35418 0.750977 5.47723 0.750977 5.61213V18.3879C0.750977 18.5228 0.82818 18.6458 0.94968 18.7045L11.8466 23.9651C11.8949 23.9884 11.9472 24 11.9995 24C12.0517 24 12.104 23.9884 12.1523 23.9651L23.0493 18.7045C23.1708 18.6458 23.248 18.5228 23.248 18.3879V5.61218C23.248 5.47718 23.1707 5.35423 23.0493 5.29554ZM11.9995 0.741961L22.0878 5.61213L19.1634 7.02391C19.1449 7.0098 19.1253 6.99677 19.1038 6.98641L9.08409 2.14938L11.9995 0.741961ZM8.29012 2.54688L18.3637 7.40998L16.3005 8.40602L6.23109 3.5449L8.29012 2.54688ZM18.5994 8.07691V11.7588L16.6723 12.6891V9.00729L18.5994 8.07691ZM22.5448 18.1673L12.351 23.0883V11.0934L14.7826 9.91952C14.9574 9.8351 15.0307 9.62496 14.9463 9.45007C14.8619 9.27527 14.6518 9.20187 14.4769 9.28634L11.9995 10.4824L11.0247 10.0117C10.8498 9.92721 10.6396 10.0006 10.5552 10.1755C10.4708 10.3503 10.5441 10.5605 10.7189 10.6449L11.6479 11.0934V23.0883L1.4541 18.1672V6.17224L9.2166 9.91966C9.26587 9.94348 9.31794 9.95473 9.36918 9.95473C9.49987 9.95473 9.6254 9.88151 9.68601 9.75593C9.77043 9.58109 9.69712 9.3709 9.52227 9.28648L1.91118 5.61213L5.4036 3.92613L15.9643 9.0244C15.9658 9.02656 15.9675 9.02848 15.9691 9.03059V13.2493C15.9691 13.3703 16.0313 13.4827 16.1338 13.5471C16.1907 13.5828 16.2556 13.6009 16.3207 13.6009C16.3729 13.6009 16.4251 13.5893 16.4736 13.5659L19.1038 12.2961C19.2253 12.2374 19.3026 12.1144 19.3026 11.9795V7.73754L22.5448 6.17229V18.1673Z" fill="#E18C44"/>
<path d="M4.35658 16.8037L2.75743 16.0317C2.5825 15.9472 2.3724 16.0206 2.28798 16.1954C2.20356 16.3702 2.27687 16.5804 2.45171 16.6649L4.05086 17.4368C4.10012 17.4607 4.1522 17.4719 4.20343 17.4719C4.33412 17.4719 4.45965 17.3987 4.52026 17.2731C4.60473 17.0982 4.53142 16.8881 4.35658 16.8037Z" fill="#E18C44"/>
<path d="M5.82803 15.8456L2.75936 14.3642C2.58447 14.2797 2.37433 14.353 2.2899 14.5279C2.20553 14.7028 2.27884 14.913 2.45369 14.9974L5.52236 16.4788C5.57162 16.5026 5.6237 16.5139 5.67494 16.5139C5.80562 16.5139 5.93115 16.4407 5.99176 16.3151C6.07619 16.1402 6.00287 15.93 5.82803 15.8456Z" fill="#E18C44"/>
</g>
<defs>
<clipPath id="clip0">
<rect width="24" height="24" fill="white"/>
</clipPath>
</defs>
</svg>
