<svg width="22" height="22" viewBox="0 0 22 22" fill="none" xmlns="http://www.w3.org/2000/svg">
<path d="M20.2812 7.21875C20.2807 6.76308 20.0994 6.32622 19.7772 6.00401C19.455 5.6818 19.0182 5.50055 18.5625 5.5H17.5168C17.2906 2.81634 14.455 0.6875 11 0.6875C7.54497 0.6875 4.70937 2.81634 4.48319 5.5H3.4375C2.98183 5.50055 2.54497 5.6818 2.22276 6.00401C1.90055 6.32622 1.7193 6.76308 1.71875 7.21875V17.5312C1.71993 18.5337 2.11869 19.4948 2.82756 20.2037C3.53642 20.9126 4.49751 21.3113 5.5 21.3125H16.5C17.5025 21.3113 18.4636 20.9126 19.1724 20.2037C19.8813 19.4948 20.2801 18.5337 20.2812 17.5312V7.21875ZM19.5938 17.5312C19.5928 18.3515 19.2666 19.1379 18.6866 19.7179C18.1066 20.2978 17.3202 20.6241 16.5 20.625H5.5C4.67977 20.6241 3.89339 20.2978 3.31339 19.7179C2.7334 19.1379 2.40716 18.3515 2.40625 17.5312V7.21875C2.40625 6.94525 2.5149 6.68294 2.7083 6.48955C2.90169 6.29615 3.164 6.1875 3.4375 6.1875H4.8125C4.90367 6.1875 4.9911 6.15128 5.05557 6.08682C5.12003 6.02235 5.15625 5.93492 5.15625 5.84375C5.15625 3.37975 7.77769 1.375 11 1.375C14.2223 1.375 16.8438 3.37975 16.8438 5.84375C16.8438 5.93492 16.88 6.02235 16.9444 6.08682C17.0089 6.15128 17.0963 6.1875 17.1875 6.1875H18.5625C18.836 6.1875 19.0983 6.29615 19.2917 6.48955C19.4851 6.68294 19.5938 6.94525 19.5938 7.21875V17.5312Z" fill="#E18C44"/>
<path d="M9.95638 9.54719H9.9605C10.6497 9.65031 11.3503 9.65031 12.0395 9.54719H12.0436C14.388 9.19244 16.1562 7.66585 16.1562 5.84397C16.1356 5.32028 15.9921 4.80878 15.7372 4.35082C15.4823 3.89287 15.1233 3.50129 14.6891 3.20775C14.6857 3.20363 14.6843 3.19847 14.6805 3.19469C14.6477 3.16185 14.6085 3.136 14.5654 3.11872C13.5121 2.41199 12.2682 2.04358 11 2.06272C8.15684 2.06272 5.84375 3.75913 5.84375 5.84397C5.84375 7.66585 7.612 9.19244 9.95638 9.54719ZM11.6256 8.90335C11.2096 8.9446 10.7904 8.9446 10.3744 8.90335L10.3125 8.8975C10.3236 8.72304 10.4006 8.55934 10.5281 8.4397C10.6556 8.32006 10.8238 8.25346 10.9986 8.25346C11.1734 8.25346 11.3417 8.32006 11.4691 8.4397C11.5966 8.55934 11.6737 8.72304 11.6848 8.8975L11.6256 8.90335ZM7.21875 5.50022H6.56047C6.70535 4.78521 7.12405 4.15518 7.72716 3.74469L8.35072 4.36825C8.41555 4.43087 8.50238 4.46552 8.59251 4.46473C8.68264 4.46395 8.76886 4.4278 8.83259 4.36407C8.89633 4.30033 8.93248 4.21411 8.93326 4.12398C8.93405 4.03385 8.8994 3.94702 8.83678 3.88219L8.32562 3.37103C9.0507 3.00556 9.84506 2.79807 10.6562 2.76225V3.43772C10.6562 3.52889 10.6925 3.61632 10.7569 3.68079C10.8214 3.74525 10.9088 3.78147 11 3.78147C11.0912 3.78147 11.1786 3.74525 11.2431 3.68079C11.3075 3.61632 11.3438 3.52889 11.3438 3.43772V2.76225C12.2407 2.79869 13.1159 3.04902 13.8964 3.49238L13.507 3.88219C13.4741 3.9139 13.4479 3.95183 13.4299 3.99377C13.4119 4.03571 13.4024 4.08082 13.402 4.12646C13.4016 4.1721 13.4103 4.21737 13.4276 4.25961C13.4449 4.30186 13.4704 4.34024 13.5027 4.37251C13.535 4.40479 13.5734 4.43031 13.6156 4.4476C13.6579 4.46488 13.7031 4.47358 13.7488 4.47318C13.7944 4.47279 13.8395 4.4633 13.8815 4.44529C13.9234 4.42727 13.9613 4.40108 13.993 4.36825L14.4664 3.89491C14.9723 4.2964 15.3176 4.86595 15.4395 5.50022H14.7812C14.6901 5.50022 14.6026 5.53644 14.5382 5.6009C14.4737 5.66537 14.4375 5.7528 14.4375 5.84397C14.4375 5.93514 14.4737 6.02257 14.5382 6.08704C14.6026 6.15151 14.6901 6.18772 14.7812 6.18772H15.4395C15.2426 7.41319 14.0088 8.4245 12.3602 8.79025C12.3304 8.51386 12.2172 8.25308 12.0356 8.04255C11.854 7.83202 11.6128 7.68169 11.3438 7.61153V4.81272C11.3438 4.72155 11.3075 4.63412 11.2431 4.56965C11.1786 4.50519 11.0912 4.46897 11 4.46897C10.9088 4.46897 10.8214 4.50519 10.7569 4.56965C10.6925 4.63412 10.6562 4.72155 10.6562 4.81272V7.61153C10.3872 7.68169 10.146 7.83202 9.9644 8.04255C9.78285 8.25308 9.66963 8.51386 9.63978 8.79025C7.98978 8.4245 6.75744 7.41319 6.56047 6.18772H7.21875C7.30992 6.18772 7.39735 6.15151 7.46182 6.08704C7.52628 6.02257 7.5625 5.93514 7.5625 5.84397C7.5625 5.7528 7.52628 5.66537 7.46182 5.6009C7.39735 5.53644 7.30992 5.50022 7.21875 5.50022Z" fill="#E18C44"/>
<path d="M16.1562 17.875H15.4688V18.5625H16.1562V17.875Z" fill="#E18C44"/>
<path d="M16.8438 16.5H16.1562V17.1875H16.8438V16.5Z" fill="#E18C44"/>
<path d="M5.84375 10.3125H5.15625V11H5.84375V10.3125Z" fill="#E18C44"/>
<path d="M17.875 7.5625H16.8438C16.7744 7.56247 16.7066 7.58344 16.6494 7.62264C16.5921 7.66185 16.5481 7.71745 16.523 7.78216C15.9644 9.22453 13.5902 10.3125 11 10.3125C8.40984 10.3125 6.03556 9.22453 5.47697 7.78216C5.45192 7.71745 5.40788 7.66185 5.35064 7.62264C5.2934 7.58344 5.22563 7.56247 5.15625 7.5625H4.125C4.03383 7.5625 3.9464 7.59872 3.88193 7.66318C3.81747 7.72765 3.78125 7.81508 3.78125 7.90625V17.5312C3.78198 18.1692 4.03573 18.7808 4.48683 19.2319C4.93793 19.683 5.54955 19.9368 6.1875 19.9375H8.25C8.88795 19.9368 9.49957 19.683 9.95067 19.2319C10.4018 18.7808 10.6555 18.1692 10.6562 17.5312V16.8438H11.3438V17.5312C11.3445 18.1692 11.5982 18.7808 12.0493 19.2319C12.5004 19.683 13.112 19.9368 13.75 19.9375H15.8125C16.4505 19.9368 17.0621 19.683 17.5132 19.2319C17.9643 18.7808 18.218 18.1692 18.2188 17.5312V7.90625C18.2188 7.81508 18.1825 7.72765 18.1181 7.66318C18.0536 7.59872 17.9662 7.5625 17.875 7.5625ZM17.5312 17.5312C17.5307 17.9869 17.3494 18.4238 17.0272 18.746C16.705 19.0682 16.2682 19.2495 15.8125 19.25H13.75C13.2943 19.2495 12.8575 19.0682 12.5353 18.746C12.2131 18.4238 12.0318 17.9869 12.0312 17.5312V16.5C12.0312 16.4088 11.995 16.3214 11.9306 16.2569C11.8661 16.1925 11.7787 16.1562 11.6875 16.1562H10.3125C10.2213 16.1562 10.1339 16.1925 10.0694 16.2569C10.005 16.3214 9.96875 16.4088 9.96875 16.5V17.5312C9.9682 17.9869 9.78695 18.4238 9.46474 18.746C9.14253 19.0682 8.70567 19.2495 8.25 19.25H6.1875C5.73183 19.2495 5.29497 19.0682 4.97276 18.746C4.65055 18.4238 4.4693 17.9869 4.46875 17.5312V8.25H4.93247C5.72584 9.85634 8.21975 11 11 11C13.7803 11 16.2742 9.85634 17.0675 8.25H17.5312V17.5312Z" fill="#E18C44"/>
</svg>
