<svg width="22" height="22" viewBox="0 0 22 22" fill="none" xmlns="http://www.w3.org/2000/svg">
<path d="M16.5 2.0625H5.5C5.2265 2.0625 4.96419 2.17115 4.7708 2.36455C4.5774 2.55794 4.46875 2.82025 4.46875 3.09375V18.9062C4.46875 19.1798 4.5774 19.4421 4.7708 19.6355C4.96419 19.8288 5.2265 19.9375 5.5 19.9375H16.5C16.7735 19.9375 17.0358 19.8288 17.2292 19.6355C17.4226 19.4421 17.5312 19.1798 17.5312 18.9062V3.09375C17.5312 2.82025 17.4226 2.55794 17.2292 2.36455C17.0358 2.17115 16.7735 2.0625 16.5 2.0625ZM16.8438 18.9062C16.8438 18.9974 16.8075 19.0849 16.7431 19.1493C16.6786 19.2138 16.5912 19.25 16.5 19.25H5.5C5.40883 19.25 5.3214 19.2138 5.25693 19.1493C5.19247 19.0849 5.15625 18.9974 5.15625 18.9062V3.09375C5.15625 3.00258 5.19247 2.91515 5.25693 2.85068C5.3214 2.78622 5.40883 2.75 5.5 2.75H16.5C16.5912 2.75 16.6786 2.78622 16.7431 2.85068C16.8075 2.91515 16.8438 3.00258 16.8438 3.09375V18.9062Z" fill="#E18C44"/>
<path d="M5.84375 6.875H16.1562V3.4375H5.84375V6.875ZM6.53125 4.125H15.4688V6.1875H6.53125V4.125Z" fill="#E18C44"/>
<path d="M14.0938 4.8125H7.90625V5.5H14.0938V4.8125Z" fill="#E18C44"/>
<path d="M14.4375 15.125H12.375V8.9375C12.375 8.84633 12.3388 8.7589 12.2743 8.69443C12.2099 8.62997 12.1224 8.59375 12.0312 8.59375H7.5625C7.47133 8.59375 7.3839 8.62997 7.31943 8.69443C7.25497 8.7589 7.21875 8.84633 7.21875 8.9375V11C7.21875 11.0912 7.25497 11.1786 7.31943 11.2431C7.3839 11.3075 7.47133 11.3438 7.5625 11.3438H9.625V15.125H7.5625C7.47133 15.125 7.3839 15.1612 7.31943 15.2257C7.25497 15.2901 7.21875 15.3776 7.21875 15.4688V17.5312C7.21875 17.6224 7.25497 17.7099 7.31943 17.7743C7.3839 17.8388 7.47133 17.875 7.5625 17.875H14.4375C14.5287 17.875 14.6161 17.8388 14.6806 17.7743C14.745 17.7099 14.7812 17.6224 14.7812 17.5312V15.4688C14.7812 15.3776 14.745 15.2901 14.6806 15.2257C14.6161 15.1612 14.5287 15.125 14.4375 15.125ZM14.0938 17.1875H7.90625V15.8125H9.96875C10.0599 15.8125 10.1474 15.7763 10.2118 15.7118C10.2763 15.6474 10.3125 15.5599 10.3125 15.4688V11C10.3125 10.9088 10.2763 10.8214 10.2118 10.7569C10.1474 10.6925 10.0599 10.6562 9.96875 10.6562H7.90625V9.28125H11.6875V15.4688C11.6875 15.5599 11.7237 15.6474 11.7882 15.7118C11.8526 15.7763 11.9401 15.8125 12.0312 15.8125H14.0938V17.1875Z" fill="#E18C44"/>
<path d="M19.9375 8.25H18.9062V3.09375C18.9055 2.4558 18.6518 1.84418 18.2007 1.39308C17.7496 0.941977 17.138 0.688228 16.5 0.6875H5.5C4.86205 0.688228 4.25043 0.941977 3.79933 1.39308C3.34823 1.84418 3.09448 2.4558 3.09375 3.09375V8.25H2.0625C1.789 8.25 1.52669 8.35865 1.3333 8.55205C1.1399 8.74544 1.03125 9.00775 1.03125 9.28125V12.7188C1.03125 12.9923 1.1399 13.2546 1.3333 13.448C1.52669 13.6413 1.789 13.75 2.0625 13.75H3.09375V18.9062C3.09448 19.5442 3.34823 20.1558 3.79933 20.6069C4.25043 21.058 4.86205 21.3118 5.5 21.3125H16.5C17.138 21.3118 17.7496 21.058 18.2007 20.6069C18.6518 20.1558 18.9055 19.5442 18.9062 18.9062V13.75H19.9375C20.211 13.75 20.4733 13.6413 20.6667 13.448C20.8601 13.2546 20.9688 12.9923 20.9688 12.7188V9.28125C20.9688 9.00775 20.8601 8.74544 20.6667 8.55205C20.4733 8.35865 20.211 8.25 19.9375 8.25ZM3.09375 9.96875H2.40625V10.6562H3.09375V11.3438H2.40625V12.0312H3.09375V13.0625H2.0625C1.97133 13.0625 1.8839 13.0263 1.81943 12.9618C1.75497 12.8974 1.71875 12.8099 1.71875 12.7188V9.28125C1.71875 9.19008 1.75497 9.10265 1.81943 9.03818C1.8839 8.97372 1.97133 8.9375 2.0625 8.9375H3.09375V9.96875ZM18.2188 18.9062C18.2182 19.3619 18.0369 19.7988 17.7147 20.121C17.3925 20.4432 16.9557 20.6245 16.5 20.625H5.5C5.04433 20.6245 4.60747 20.4432 4.28526 20.121C3.96305 19.7988 3.7818 19.3619 3.78125 18.9062V3.09375C3.7818 2.63808 3.96305 2.20122 4.28526 1.87901C4.60747 1.5568 5.04433 1.37555 5.5 1.375H16.5C16.9557 1.37555 17.3925 1.5568 17.7147 1.87901C18.0369 2.20122 18.2182 2.63808 18.2188 3.09375V18.9062ZM20.2812 12.7188C20.2812 12.8099 20.245 12.8974 20.1806 12.9618C20.1161 13.0263 20.0287 13.0625 19.9375 13.0625H18.9062V12.0312H19.5938V11.3438H18.9062V10.6562H19.5938V9.96875H18.9062V8.9375H19.9375C20.0287 8.9375 20.1161 8.97372 20.1806 9.03818C20.245 9.10265 20.2812 9.19008 20.2812 9.28125V12.7188Z" fill="#E18C44"/>
</svg>
