<svg width="22" height="22" viewBox="0 0 22 22" fill="none" xmlns="http://www.w3.org/2000/svg">
<g clip-path="url(#clip0)">
<path d="M3.2175 0.992188H0.334286C0.14976 0.992188 0 1.14161 0 1.32647C0 1.51166 0.14976 1.66075 0.334286 1.66075H3.2175C3.40202 1.66075 3.55178 1.51166 3.55178 1.32647C3.55178 1.14161 3.40202 0.992188 3.2175 0.992188Z" fill="#E18C44"/>
<path d="M3.2175 20.0044H0.334286C0.14976 20.0044 0 20.1538 0 20.3387C0 20.5242 0.14976 20.673 0.334286 20.673H3.2175C3.40202 20.673 3.55178 20.5242 3.55178 20.3387C3.55178 20.1542 3.40202 20.0044 3.2175 20.0044Z" fill="#E18C44"/>
<path d="M0.862701 18.3468C0.731996 18.2151 0.520727 18.2151 0.390021 18.3468C0.259316 18.4778 0.259316 18.6881 0.390021 18.8194L1.46609 19.8958C1.53127 19.9607 1.61685 19.9938 1.70243 19.9938C1.788 19.9938 1.87392 19.9607 1.93877 19.8958L2.01164 19.8223C2.01198 19.8223 2.01198 19.8223 2.01264 19.8216L3.0048 18.8288C3.13551 18.6981 3.13551 18.4875 3.0048 18.3568C2.87376 18.2254 2.66283 18.2254 2.53212 18.3568L2.11026 18.779V2.88529L2.57859 3.35395C2.64377 3.41914 2.72935 3.4519 2.81493 3.4519C2.90051 3.4519 2.98608 3.41914 3.05127 3.35395C3.18197 3.22291 3.18197 3.01198 3.05127 2.88128L2.01198 1.842C1.98122 1.81091 1.94445 1.78651 1.90333 1.76946C1.82177 1.7357 1.72917 1.7357 1.6476 1.76946C1.60649 1.78651 1.57005 1.81091 1.53896 1.842L0.42111 2.95983C0.290404 3.09054 0.290404 3.30147 0.42111 3.43217C0.486296 3.49736 0.571873 3.53045 0.65745 3.53045C0.743027 3.53045 0.828938 3.49736 0.89379 3.43217L1.44135 2.88496V18.9247L0.862701 18.3468Z" fill="#E18C44"/>
<path d="M12.3268 18.1896V17.3305H13.8311C14.0159 17.3305 14.1653 17.1817 14.1653 16.9962C14.1653 16.8113 14.0159 16.6619 13.8311 16.6619H12.3268V12.4413H15.0846V14.6977C15.0846 14.8832 15.2347 15.032 15.4189 15.032C15.6038 15.032 15.7532 14.8832 15.7532 14.6977V1.32647C15.7532 1.14161 15.6038 0.992188 15.4189 0.992188H4.67999C4.49546 0.992188 4.3457 1.14161 4.3457 1.32647V20.3387C4.3457 20.5242 4.49546 20.6729 4.67999 20.6729H8.10642C8.29094 20.6729 8.4407 20.5242 8.4407 20.3387V17.3301H11.6582V18.1892C11.6582 18.3748 11.8083 18.5235 11.9925 18.5235C12.177 18.5239 12.3268 18.3748 12.3268 18.1896ZM12.3268 11.7727V7.13459H15.0846V11.7727H12.3268ZM15.0846 6.46603H12.3268V1.66075H15.0846V6.46603ZM11.6582 6.46603H8.4407V1.66075H11.6582V6.46603ZM7.77213 6.46603H5.01427V1.66075H7.77213V6.46603ZM5.01427 12.4413H7.77213V16.6616H5.01427V12.4413ZM5.01427 11.7727V7.13459H7.77213V11.7727H5.01427ZM8.4407 7.13459H11.6582V11.7727H8.4407V7.13459ZM7.77213 20.0044H5.01427V17.3301H7.77213V20.0044ZM8.4407 16.6616V12.4413H11.6582V16.6616H8.4407Z" fill="#E18C44"/>
<path d="M21.7937 11.1513C21.7121 11.1169 21.6195 11.1169 21.5373 11.1513C21.4962 11.1684 21.4601 11.1924 21.4293 11.2238L12.2157 20.4366C12.1843 20.4677 12.1602 20.5045 12.1425 20.5456C12.1087 20.6268 12.1087 20.7198 12.1425 20.801C12.1773 20.8825 12.2418 20.9474 12.3234 20.9818C12.3645 20.9992 12.4076 21.0072 12.4514 21.0072H21.6656C21.8498 21.0072 21.9999 20.8581 21.9999 20.673V11.4595C21.9999 11.4164 21.9909 11.3726 21.9738 11.3322C21.9408 11.2499 21.8752 11.1851 21.7937 11.1513ZM21.3314 12.2665V20.3383H13.259L21.3314 12.2665Z" fill="#E18C44"/>
<path d="M20.0568 15.7037C20.0568 15.6596 20.0478 15.6164 20.0314 15.5753C19.9973 15.4938 19.9321 15.4289 19.8506 15.3945C19.769 15.36 19.6768 15.36 19.5952 15.3945C19.5541 15.4119 19.517 15.4363 19.4862 15.4673L16.7093 18.2442C16.6775 18.2756 16.6538 18.3121 16.6364 18.3532C16.6017 18.4348 16.6017 18.5274 16.6364 18.6093C16.6702 18.6901 16.7354 18.7557 16.8173 18.7901C16.8571 18.8071 16.9018 18.8148 16.945 18.8148H19.7225C19.9067 18.8148 20.0568 18.6667 20.0568 18.4806C20.0568 18.4291 20.0418 18.3793 20.0197 18.3345C20.0418 18.29 20.0568 18.2422 20.0568 18.1887V15.7037ZM19.3883 18.1463H17.7526L19.3883 16.5096V18.1463Z" fill="#E18C44"/>
</g>
<defs>
<clipPath id="clip0">
<rect width="22" height="22" fill="white"/>
</clipPath>
</defs>
</svg>
