<svg width="24" height="24" viewBox="0 0 24 24" fill="none" xmlns="http://www.w3.org/2000/svg">
<g clip-path="url(#clip0)">
<path d="M0.726313 24H4.06964C4.22985 24 4.36975 23.8917 4.41003 23.7368L5.29663 20.3249H14.9038C14.9038 20.3249 14.0643 23.5554 14.063 23.56C14.0077 23.7727 14.1725 24 14.4034 24H17.7467C17.9069 24 18.0468 23.8917 18.0871 23.7368L23.6158 2.46346C23.8888 1.41226 23.256 0.334863 22.205 0.0618527C21.1655 -0.208411 20.0734 0.433374 19.8033 1.47268L19.1352 4.0433H17.3651C17.1708 4.0433 17.0134 4.20077 17.0134 4.39486C17.0134 4.58914 17.1708 4.74642 17.3651 4.74642H18.9524L18.4744 6.58572H8.07836C7.57116 6.58572 7.15863 6.17318 7.15863 5.66616C7.15863 5.2225 7.47448 4.85116 7.89324 4.76528C7.95294 4.75301 15.9587 4.74642 15.9587 4.74642C16.1528 4.74642 16.3102 4.58914 16.3102 4.39486C16.3102 4.20077 16.1528 4.0433 15.9587 4.0433H9.52801L9.93872 2.46346C10.2119 1.41226 9.57891 0.334863 8.52789 0.0618527C7.48858 -0.208411 6.39636 0.433374 6.12628 1.47268C6.12628 1.47268 0.395258 23.5243 0.386103 23.5598C0.328974 23.7797 0.499812 24 0.726313 24ZM15.0865 19.6217H4.68963C4.18261 19.6217 3.77008 19.2092 3.77008 18.7022C3.77008 18.195 4.18261 17.7824 4.68963 17.7824H7.45068C7.64477 17.7824 7.80224 17.625 7.80224 17.4309C7.80224 17.2366 7.64477 17.0793 7.45068 17.0793H6.14019L6.99072 13.8068H16.5977L15.7474 17.0793H8.85693C8.66284 17.0793 8.50537 17.2366 8.50537 17.4309C8.50537 17.625 8.66284 17.7824 8.85693 17.7824H15.5646L15.0865 19.6217ZM17.2585 11.2644L16.7805 13.1037H6.38482C5.8778 13.1037 5.46527 12.6912 5.46527 12.1842C5.46527 11.677 5.8778 11.2644 6.38482 11.2644H17.2585ZM20.4839 1.64938C20.6568 0.984155 21.3639 0.569604 22.0281 0.742273C22.7037 0.918054 23.1108 1.61074 22.9352 2.28658L17.4748 23.2968H14.858C14.858 23.2968 20.483 1.65267 20.4839 1.64938ZM17.4413 10.5613H7.8341L8.68463 7.28902H18.2916L17.4413 10.5613ZM6.80688 1.64938C6.97973 0.984155 7.6867 0.569604 8.35101 0.742273C9.02685 0.918054 9.43371 1.61074 9.25811 2.28658L8.80163 4.0433H8.07836C7.25732 4.0433 6.54705 4.68417 6.46392 5.50045C6.37457 6.37661 7.07989 7.22146 7.95916 7.28463L7.10754 10.5613H6.38482C5.48998 10.5613 4.76214 11.2891 4.76196 12.184C4.76196 13.0155 5.43817 13.7402 6.26525 13.8025L5.41363 17.0791H4.68963C3.7948 17.0791 3.06695 17.8072 3.06677 18.702C3.06677 19.5364 3.74005 20.2597 4.57135 20.3206L3.79791 23.2967H1.18096C1.18096 23.2968 6.80029 1.67446 6.80688 1.64938Z" fill="#E18C44"/>
</g>
<defs>
<clipPath id="clip0">
<rect width="24" height="24" fill="white"/>
</clipPath>
</defs>
</svg>
