<svg width="68" height="63" fill="none" xmlns="http://www.w3.org/2000/svg"><path d="M60.83 3.06H16.857c-3.816 0-6.92 2.85-6.92 6.341l-.284 35.872h-8.58c-.608 0-1.073.498-1.073 1.062v4.937c0 4.621 3.992 8.4 8.81 8.608v.06h37.028v-.068c.275.01.442.067.631.067h.027c5.138-.028 9.28-3.908 9.253-8.669V19.895h11.178c.608 0 1.073-.51 1.073-1.073V9.763c.007-3.681-3.197-6.676-7.17-6.702zM9.291 57.9h-.008c-3.917 0-7.082-3-7.082-6.629v-3.956h34.964v3.94c-.009 2.296.97 4.501 2.72 6.127.187.173.381.263.58.518H9.291zm44.255-6.63c0 3.63-3.134 6.63-7.053 6.63h-.023c-3.938-.027-7.112-2.996-7.103-6.645v-4.92c.004-.57-.484-1.041-1.1-1.06H11.855l.284-35.866c0-2.373 2.116-4.307 4.718-4.307H55.63c-1.255 1.275-2.083 2.889-2.083 4.69V51.27zm12.25-41.488v8.073H55.75V9.79c0-2.554 2.293-4.688 5.048-4.688h.03c2.763.025 4.984 2.113 4.97 4.673v.007z" fill="#E18C44"/><path d="M25.858 28.173l5.678 3.597c.37.236.86.236 1.23 0l5.661-3.596c1.967-1.243 3.419-3.841 3.419-6.044v-7.277c.012-.384-.217-.741-.587-.916l-8.645-3.94a1.16 1.16 0 0 0-.962 0l-8.629 3.93a.985.985 0 0 0-.586.915v7.287c0 2.204 1.456 4.802 3.421 6.044zM24.64 15.48l7.503-3.43 7.502 3.44v6.64c0 1.537-1.088 3.492-2.46 4.358l-5.055 3.204-5.037-3.203c-1.371-.867-2.453-2.822-2.453-4.358V15.48z" fill="#4D64AA"/><path d="M30.28 23.67c.205.194.485.304.779.306h.003c.292-.001.572-.11.778-.302l4.38-4.06a.969.969 0 0 0 .002-1.444 1.164 1.164 0 0 0-1.558 0l-3.599 3.333-1.438-1.346a1.165 1.165 0 0 0-1.558-.006.969.969 0 0 0-.007 1.443l2.217 2.076zm15.558 11.018h-26.43c-.607 0-1.1.457-1.1 1.02 0 .564.493 1.021 1.1 1.021h26.43c.608 0 1.101-.457 1.101-1.02 0-.564-.493-1.02-1.101-1.02zm0 4.719h-26.43c-.607 0-1.1.457-1.1 1.02s.493 1.02 1.1 1.02h26.43c.608 0 1.101-.457 1.101-1.02s-.493-1.02-1.101-1.02z" fill="#4D64AA"/></svg>