<svg width="75" height="75" fill="none" xmlns="http://www.w3.org/2000/svg"><g clip-path="url(#clip0)"><path d="M72.958 11.925l-9.61-11.2A2.286 2.286 0 0 0 60.193.55l-7.658 6.613a2.23 2.23 0 0 0-.772 1.537 2.234 2.234 0 0 0 .54 1.633l.3.347-.494.427c-1.311 1.132-3.284 1.47-5.277.905-.04-.011-5.712-1.62-5.753-1.63-1.034-.24-3.708-.62-6.262 1.028-.042.024-14.677 8.4-14.716 8.426-1.336.87-3.197 3.046-1.696 5.68l.018.03c.643 1.048 1.57 1.673 2.651 1.846a3.947 3.947 0 0 0 1.371 2.843 3.975 3.975 0 0 0 5.6-.404l5.425-6.267c.22-.254.404-.533.553-.832l.223-.092c.293 1.096 1.092 2.188 2.725 2.651 6.806 1.93 8.223 2.49 10.128 2.279 5.312-.57 6.53-.744 9.205-2.284a42.198 42.198 0 0 0 5.581-3.855l.327.378a2.247 2.247 0 0 0 3.17.232l7.29-6.294a2.719 2.719 0 0 0 .286-3.822zM26.385 28.392c-1.1 1.27-3.174.428-3.113-1.218l6.492-2.686-3.38 3.904zm28.823-5.01c-2.276 1.31-3.042 1.434-8.32 2-1.445.155-2.578-.294-9.317-2.205-.863-.245-1.088-.707-1.183-1.032-.129-.445-.046-.87-.047-.87l.003-.016c.002-.01.005-.019.006-.029 0-.002.07-.296.26-.552.163-.22.41-.436 1-.354 2.078.286 7.03.948 7.079.954a1.098 1.098 0 1 0 .291-2.178c-.05-.006-4.996-.668-7.071-.953-1.943-.268-3.087.932-3.538 2.065l-1.603.66c-12.649 5.216-9.797 4.084-10.736 4.355-1.767.248-2.978-2.052-.756-3.534l14.657-8.39a1.264 1.264 0 0 0 .056-.034c1.835-1.194 3.788-.93 4.568-.752l5.675 1.61c2.707.767 5.44.26 7.313-1.357l.494-.426 6.41 7.424a39.99 39.99 0 0 1-5.24 3.614zm16.028-9.299c-.024.02-7.296 6.31-7.327 6.307-.041-.003-10.003-11.507-9.938-11.564l7.658-6.612a.079.079 0 0 1 .094-.007l9.567 11.15a.517.517 0 0 1-.054.726zM54.138 47.659c-.132-3.544-4.603-5.175-6.971-2.44l-5.425 6.268a3.95 3.95 0 0 0-.552.831l-.223.093c-.293-1.097-1.092-2.188-2.726-2.651-7.204-2.044-8.143-2.453-10.106-2.281a.753.753 0 0 0-.021.002c-5.312.57-6.53.744-9.205 2.283a42.188 42.188 0 0 0-5.581 3.856L13 53.242a2.25 2.25 0 0 0-3.17-.232l-7.687 6.637a2.174 2.174 0 0 0-.213 3.082l10.13 11.544c.758.865 2.078.973 2.939.245a1.16 1.16 0 0 1 .02-.018l7.658-6.612a2.247 2.247 0 0 0 .232-3.17l-.3-.348.494-.426c1.311-1.132 3.284-1.47 5.277-.906l5.095 1.446a1.1 1.1 0 0 0 .6-2.114l-5.095-1.446c-2.707-.767-5.44-.26-7.313 1.357l-.494.426-6.41-7.424a39.968 39.968 0 0 1 5.24-3.614c2.279-1.311 3.044-1.435 8.333-2.002 1.237-.108 2.01.115 6.248 1.333 3.284.943 3.962.948 4.24 1.906.129.445.046.87.047.87a1.63 1.63 0 0 1-.268.596c-.164.221-.411.436-1 .355-2.08-.286-7.03-.948-7.08-.955a1.098 1.098 0 1 0-.29 2.178c.049.007 4.995.668 7.07.954 1.717.236 2.989-.687 3.538-2.065.055-.023 11.065-4.56 11.117-4.587 1.16-.59 2.257-.724 2.948.386.796 1.422-.615 2.482-.97 2.72l-14.657 8.39-.02.01a5.58 5.58 0 0 1-.805.44 1.099 1.099 0 0 0 .897 2.008 7.787 7.787 0 0 0 1.046-.567c.043-.024 14.672-8.397 14.714-8.425 3.985-2.594 2.068-7.069-.974-7.555zM21.247 66.154a.046.046 0 0 1 .012.036c-.002.032-7.57 6.557-7.595 6.578L3.597 61.296l7.67-6.623a.047.047 0 0 1 .037-.012c.02.001.03.012.034.017l9.909 11.476zm24.202-15.592l3.38-3.904c1.085-1.254 3.173-.45 3.112 1.219l-6.492 2.685z" fill="#E18C44"/><path d="M36.349 34.143c.206.362.812.848 1.53.83.593-.013 1.143-.367 1.44-.846 1.415-2.274 4.376-1.761 5.26.309a1.099 1.099 0 0 0 2.021-.863c-1.5-3.513-6.285-4.31-8.766-1.151-3.007-3.853-9.187-1.664-9.182 3.177.005 5.09 4.412 8.983 8.535 10.929.425.2.908.19 1.31-.001 2.965-1.407 6.117-3.902 7.575-6.916a1.099 1.099 0 1 0-1.978-.957c-1.188 2.455-3.82 4.522-6.255 5.748-3.429-1.696-6.985-4.851-6.99-8.805-.002-2.982 4-4.095 5.5-1.454z" fill="#4D64AA"/></g><defs><clipPath id="clip0"><path fill="#fff" d="M0 0h75v75H0z"/></clipPath></defs></svg>