<svg width="74" height="75" fill="none" xmlns="http://www.w3.org/2000/svg"><g clip-path="url(#clip0)"><path d="M9.915 75h46.867c2.043 0 3.7-1.679 3.7-3.75V12.5h4.933c1.362 0 2.467-1.12 2.467-2.5V6.25C67.877 2.8 65.119.004 61.715 0h-51.8c-2.044 0-3.7 1.679-3.7 3.75v67.5c0 2.071 1.656 3.75 3.7 3.75zm51.8-72.5c2.043 0 3.7 1.679 3.7 3.75V10H16.081V6.25a6.239 6.239 0 0 0-1.265-3.75h46.899zM8.68 3.75c0-.69.553-1.25 1.234-1.25 2.043 0 3.7 1.679 3.7 3.75V10c0 1.38 1.104 2.5 2.466 2.5h41.934v58.75c0 .69-.553 1.25-1.233 1.25H9.915c-.681 0-1.234-.56-1.234-1.25V3.75z" fill="#E18C44"/><path d="M16.081 31.25h7.4c1.363 0 2.467-1.12 2.467-2.5V27.5c0-.69-.552-1.25-1.233-1.25s-1.234.56-1.234 1.25v1.25h-7.4v-7.5h3.7c.681 0 1.234-.56 1.234-1.25s-.553-1.25-1.233-1.25h-3.7c-1.363 0-2.467 1.12-2.467 2.5v7.5c0 1.38 1.104 2.5 2.466 2.5zm0 17.5h7.4c1.363 0 2.467-1.12 2.467-2.5v-7.5c0-1.38-1.104-2.5-2.467-2.5h-7.4c-1.362 0-2.466 1.12-2.466 2.5v7.5c0 1.38 1.104 2.5 2.466 2.5zm0-10h7.4v7.5h-7.4v-7.5zm0 27.5h7.4c1.363 0 2.467-1.12 2.467-2.5v-7.5c0-1.38-1.104-2.5-2.467-2.5h-7.4c-1.362 0-2.466 1.12-2.466 2.5v7.5c0 1.38 1.104 2.5 2.466 2.5zm0-10h7.4v7.5h-7.4v-7.5zm14.801-32.5h6.166c.682 0 1.234-.56 1.234-1.25s-.552-1.25-1.234-1.25h-6.166c-.681 0-1.234.56-1.234 1.25s.553 1.25 1.234 1.25zm11.099 0h12.334c.68 0 1.233-.56 1.233-1.25s-.552-1.25-1.233-1.25H41.98c-.68 0-1.233.56-1.233 1.25s.552 1.25 1.233 1.25zm-11.099 5h12.333c.681 0 1.234-.56 1.234-1.25s-.553-1.25-1.234-1.25H30.882c-.681 0-1.234.56-1.234 1.25s.553 1.25 1.234 1.25zm23.433-2.5h-6.167c-.68 0-1.233.56-1.233 1.25s.552 1.25 1.233 1.25h6.167c.68 0 1.233-.56 1.233-1.25s-.552-1.25-1.233-1.25zm-23.433 15h6.166c.682 0 1.234-.56 1.234-1.25s-.552-1.25-1.234-1.25h-6.166c-.681 0-1.234.56-1.234 1.25s.553 1.25 1.234 1.25zm23.433-2.5H41.98c-.68 0-1.233.56-1.233 1.25s.552 1.25 1.233 1.25h12.334c.68 0 1.233-.56 1.233-1.25s-.552-1.25-1.233-1.25zm-23.433 7.5h12.333c.681 0 1.234-.56 1.234-1.25s-.553-1.25-1.234-1.25H30.882c-.681 0-1.234.56-1.234 1.25s.553 1.25 1.234 1.25zm23.433-2.5h-6.167c-.68 0-1.233.56-1.233 1.25s.552 1.25 1.233 1.25h6.167c.68 0 1.233-.56 1.233-1.25s-.552-1.25-1.233-1.25zm-23.433 15h6.166c.682 0 1.234-.56 1.234-1.25s-.552-1.25-1.234-1.25h-6.166c-.681 0-1.234.56-1.234 1.25s.553 1.25 1.234 1.25zm23.433-2.5H41.98c-.68 0-1.233.56-1.233 1.25s.552 1.25 1.233 1.25h12.334c.68 0 1.233-.56 1.233-1.25s-.552-1.25-1.233-1.25zm-23.433 7.5h12.333c.681 0 1.234-.56 1.234-1.25s-.553-1.25-1.234-1.25H30.882c-.681 0-1.234.56-1.234 1.25s.553 1.25 1.234 1.25zm23.433-2.5h-6.167c-.68 0-1.233.56-1.233 1.25s.552 1.25 1.233 1.25h6.167c.68 0 1.233-.56 1.233-1.25s-.552-1.25-1.233-1.25z" fill="#4D64AA"/><path d="M19.42 22.866a1.222 1.222 0 0 0-1.729.015 1.263 1.263 0 0 0-.015 1.753l2.467 2.5c.232.234.545.366.872.366h.102c.362-.03.691-.22.902-.52l6.166-8.75a1.26 1.26 0 0 0 .119-1.244 1.233 1.233 0 0 0-1.004-.727 1.227 1.227 0 0 0-1.122.519l-5.32 7.548-1.438-1.46z" fill="#4D64AA"/></g><defs><clipPath id="clip0"><path fill="#fff" d="M0 0h74v75H0z"/></clipPath></defs></svg>