<svg width="75" height="75" fill="none" xmlns="http://www.w3.org/2000/svg"><path d="M52.846 42.372a19.075 19.075 0 0 0 3.902-11.619 19.11 19.11 0 0 0-5.735-13.706 19.113 19.113 0 0 0-13.791-5.54c-5.033.072-9.774 2.092-13.351 5.687-3.577 3.596-5.572 8.348-5.618 13.381a19.064 19.064 0 0 0 3.925 11.828c4.231 5.557 6.562 12.363 6.562 19.166v7.443A5.994 5.994 0 0 0 34.728 75h5.57a5.995 5.995 0 0 0 5.987-5.988V61.57c0-6.877 2.252-13.516 6.56-19.197zM24.14 40.908a16.618 16.618 0 0 1-3.42-10.31c.082-9.038 7.5-16.495 16.536-16.622 4.533-.061 8.8 1.65 12.023 4.828 3.224 3.179 5 7.423 5 11.95 0 3.692-1.176 7.194-3.4 10.127-4.54 5.986-6.984 12.97-7.084 20.224H31.204c-.103-7.184-2.602-14.34-7.063-20.197zm7.067 27.268v-.999l12.61 1.445v.39c0 .206-.022.406-.056.602l-12.554-1.438zm0-3.483v-1.12h12.61v2.565l-12.61-1.445zm3.52 7.84a3.522 3.522 0 0 1-3.082-1.823l10.622 1.217a3.5 3.5 0 0 1-1.97.605h-5.57z" fill="#E18C44"/><path d="M25.299 32.61a12.644 12.644 0 0 1-.136-1.972 1.234 1.234 0 1 0-2.468-.022c-.007.791.047 1.584.163 2.358a1.234 1.234 0 0 0 2.44-.364zm7.261 18.741a1.234 1.234 0 0 0 1.172-1.62 39.147 39.147 0 0 0-6.057-11.514 12.455 12.455 0 0 1-1.154-1.823 1.234 1.234 0 0 0-2.193 1.133c.394.76.859 1.496 1.384 2.185a36.684 36.684 0 0 1 5.676 10.79c.171.52.653.85 1.172.85zm17.905-16.373a1.234 1.234 0 0 0-1.622.645c-.39.908-.897 1.774-1.503 2.574a1.234 1.234 0 1 0 1.966 1.491 14.823 14.823 0 0 0 1.803-3.088 1.234 1.234 0 0 0-.645-1.622zM37.5 18.416c6.803 0 12.338 5.534 12.338 12.337 0 .387-.018.777-.053 1.159a1.234 1.234 0 0 0 2.457.225c.042-.456.064-.922.064-1.384 0-8.163-6.642-14.805-14.806-14.805a1.234 1.234 0 1 0 0 2.468zm0-9.039c.681 0 1.234-.552 1.234-1.233v-6.91a1.234 1.234 0 0 0-2.468 0v6.91c0 .681.553 1.233 1.234 1.233zm-12.483 2.439a1.233 1.233 0 1 0 2.137-1.234L23.701 4.6a1.234 1.234 0 1 0-2.137 1.234l3.453 5.982zm38.851 32.951l-5.981-3.453a1.234 1.234 0 1 0-1.234 2.137l5.982 3.453a1.234 1.234 0 0 0 1.234-2.137zM11.131 17.17l5.982 3.453a1.233 1.233 0 0 0 1.234-2.137l-5.982-3.453a1.234 1.234 0 1 0-1.234 2.137zm56.103 12.565h-6.91a1.234 1.234 0 1 0 0 2.468h6.91a1.234 1.234 0 0 0 0-2.468zm-51.325 1.234c0-.682-.553-1.234-1.234-1.234h-6.91a1.234 1.234 0 1 0 0 2.468h6.91c.681 0 1.234-.553 1.234-1.234zm41.361-10.18c.21 0 .422-.054.617-.166l5.981-3.453a1.234 1.234 0 0 0-1.233-2.137l-5.982 3.453a1.234 1.234 0 0 0 .618 2.303zM17.113 41.314l-5.982 3.454a1.234 1.234 0 0 0 1.234 2.137l5.982-3.453a1.234 1.234 0 0 0-1.234-2.138zm31.184-29.046a1.234 1.234 0 0 0 1.685-.452l3.454-5.982A1.234 1.234 0 0 0 51.3 4.6l-3.453 5.982a1.233 1.233 0 0 0 .451 1.685z" fill="#4D64AA"/></svg>