<svg width="63" height="63" fill="none" xmlns="http://www.w3.org/2000/svg"><path d="M5.08 6.097h30.485v7.113c0 .562.454 1.016 1.016 1.016h7.112v8.129h2.033V13.21c0-.282-.115-.536-.299-.72l-8.126-8.126c-.185-.185-.44-.3-.72-.3H9.145V2.033h38.613v22.355h2.032V1.017C49.79.453 49.336 0 48.774 0H8.13c-.562 0-1.016.454-1.016 1.016v3.049h-3.05c-.562 0-1.016.454-1.016 1.016v56.903c0 .562.454 1.016 1.016 1.016h34.549v-2.032H5.08V6.097zm32.517 1.437l4.66 4.66h-4.66v-4.66z" fill="#E18C44"/><path d="M58.935 30.484h-1.53A15.2 15.2 0 0 1 45.697 25l-.206-.247c-.385-.465-1.177-.465-1.562 0l-.205.246a15.202 15.202 0 0 1-11.71 5.484h-1.53c-.562 0-1.016.454-1.016 1.016v16.457c0 4.001 2.158 7.72 5.632 9.705l9.106 5.204a1.015 1.015 0 0 0 1.008 0l9.105-5.204a11.202 11.202 0 0 0 5.633-9.705V31.5c0-.562-.454-1.016-1.017-1.016zM57.92 47.957a9.16 9.16 0 0 1-4.608 7.94l-8.601 4.917-8.602-4.916a9.165 9.165 0 0 1-4.608-7.941V32.516h.514c4.849 0 9.428-2.015 12.696-5.56a17.223 17.223 0 0 0 12.695 5.56h.514v15.44z" fill="#E18C44"/><path d="M44.71 33.532c-6.163 0-11.178 5.015-11.178 11.178 0 6.162 5.015 11.177 11.178 11.177 6.162 0 11.177-5.015 11.177-11.177 0-6.163-5.015-11.178-11.177-11.178zm0 20.323c-5.043 0-9.145-4.102-9.145-9.145 0-5.043 4.102-9.145 9.145-9.145 5.043 0 9.145 4.102 9.145 9.145 0 5.043-4.102 9.145-9.145 9.145z" fill="#4D64AA"/><path d="M44.225 47.869l-1.845-1.845-1.437 1.437 3.049 3.048a1.014 1.014 0 0 0 .966.267 1.02 1.02 0 0 0 .726-.694l3.048-10.161-1.947-.584-2.56 8.532zM7.113 16.258h26.42v2.032H7.112v-2.032zm0 4.065h26.42v2.032H7.112v-2.032zm0 4.064h26.42v2.032H7.112v-2.032zm0 4.065h20.322v2.032H7.113v-2.032zm0 4.064h20.322v2.032H7.113v-2.032zm0 4.064h20.322v2.033H7.113V36.58zm0 12.194h20.322v2.033H7.113v-2.033zm0 4.065h20.322v2.032H7.113V52.84zm0 4.064h20.322v2.033H7.113v-2.033zM8.129 8.129h2.032v2.032H8.13V8.13zm4.064 0h2.033v2.032h-2.033V8.13zm4.065 0h2.032v2.032h-2.032V8.13zm4.064 0h13.21v2.032h-13.21V8.13z" fill="#4D64AA"/></svg>