<svg width="75" height="75" fill="none" xmlns="http://www.w3.org/2000/svg"><path d="M37.547 67.217c9.253 0 16.781-7.527 16.781-16.78 0-9.254-7.528-16.782-16.781-16.782s-16.782 7.528-16.782 16.781c0 9.254 7.529 16.781 16.782 16.781zm0-31.324c8.02 0 14.544 6.523 14.544 14.543S45.566 64.98 37.546 64.98s-14.544-6.524-14.544-14.544 6.524-14.543 14.544-14.543z" fill="#4D64AA"/><path d="M64.737 4.77L55.245.114A1.115 1.115 0 0 0 54.752 0h-34.41c-.168 0-.337.038-.492.114L10.357 4.77C6.508 6.658 4.912 11.326 6.8 15.174l10.489 21.387a24.422 24.422 0 0 0-4.305 13.875c0 2.587.4 5.135 1.19 7.574a1.12 1.12 0 0 0 2.129-.69 22.307 22.307 0 0 1-1.082-6.884c0-12.31 10.016-22.326 22.326-22.326s22.327 10.015 22.327 22.326c0 12.31-10.016 22.326-22.327 22.326a22.328 22.328 0 0 1-19.634-11.688 1.12 1.12 0 0 0-1.966 1.067A24.564 24.564 0 0 0 37.547 75c13.545 0 24.564-11.02 24.564-24.564 0-5.145-1.59-9.925-4.305-13.876l4.352-8.875a1.119 1.119 0 0 0-2.01-.985l-3.86 7.874A24.605 24.605 0 0 0 43.5 26.603L55.262 2.616l8.49 4.163a5.545 5.545 0 0 1 2.532 7.41l-4.151 8.465a1.118 1.118 0 1 0 2.009.985l4.151-8.465c1.888-3.849.293-8.516-3.557-10.404zm-42.6-2.532h30.82L45.78 16.87H29.315L22.138 2.238zm-3.33 32.337L8.81 14.189a5.545 5.545 0 0 1 2.533-7.41l8.489-4.163 11.765 23.987a24.602 24.602 0 0 0-12.789 7.972zm18.74-8.703c-1.25 0-2.48.095-3.681.276l-3.453-7.04h14.27l-3.453 7.04a24.579 24.579 0 0 0-3.683-.276z" fill="#E18C44"/><path d="M29.639 52.472c.321.314.468.766.392 1.209l-.39 2.273a3.58 3.58 0 0 0 1.434 3.525 3.59 3.59 0 0 0 3.795.274l2.041-1.073c.398-.21.873-.21 1.272 0l2.041 1.073a3.58 3.58 0 0 0 3.795-.274 3.582 3.582 0 0 0 1.434-3.525l-.39-2.273a1.367 1.367 0 0 1 .392-1.21l1.652-1.61a3.58 3.58 0 0 0 .912-3.693 3.58 3.58 0 0 0-2.909-2.452l-2.282-.332a1.366 1.366 0 0 1-1.029-.748l-1.02-2.067a3.58 3.58 0 0 0-3.232-2.01 3.58 3.58 0 0 0-3.231 2.01l-1.021 2.068a1.37 1.37 0 0 1-1.028.747l-2.284.332a3.582 3.582 0 0 0-2.909 2.452 3.582 3.582 0 0 0 .912 3.694l1.652 1.61zm-.436-4.613a1.34 1.34 0 0 1 1.103-.929l2.282-.332a3.603 3.603 0 0 0 2.714-1.971l1.02-2.069a1.34 1.34 0 0 1 1.225-.761c.532 0 .99.285 1.225.762l1.02 2.068a3.603 3.603 0 0 0 2.714 1.971l2.283.332c.526.076.938.424 1.102.93a1.341 1.341 0 0 1-.345 1.4l-1.652 1.61a3.6 3.6 0 0 0-1.036 3.19l.39 2.273a1.34 1.34 0 0 1-.544 1.336 1.34 1.34 0 0 1-1.438.103L39.224 56.7a3.605 3.605 0 0 0-3.354 0l-2.042 1.073a1.341 1.341 0 0 1-1.438-.104 1.34 1.34 0 0 1-.543-1.335l.39-2.274a3.602 3.602 0 0 0-1.037-3.19l-1.652-1.61a1.342 1.342 0 0 1-.345-1.4z" fill="#4D64AA"/></svg>